<svg width="38" height="30" viewBox="0 0 38 30" fill="none" xmlns="http://www.w3.org/2000/svg">
<path d="M31.0651 29.1176C30.764 27.4773 30.1339 25.9127 29.2116 24.5154C28.2893 23.1182 27.0934 21.9164 25.694 20.9804C27.0649 19.3579 27.8053 17.3075 27.7828 15.1961C27.7944 13.8384 27.4881 12.4964 26.8876 11.2745L30.8662 2.2549L22.2127 4.31373L18.632 0L15.0513 4.31373L6.39786 2.2549L10.3764 11.2745C9.77592 12.4964 9.46958 13.8384 9.48126 15.1961C9.48867 17.3024 10.2256 19.3431 11.57 20.9804C10.1565 21.9012 8.95017 23.0987 8.02617 24.4986C7.10217 25.8985 6.4802 27.4707 6.19893 29.1176L6 30H31.264L31.0651 29.1176ZM8.98394 4.31373L15.6481 5.88235L18.632 2.2549L21.6159 5.88235L28.2801 4.31373L25.8929 9.70588C25.0265 8.58954 23.9133 7.68261 22.6379 7.05404C21.3625 6.42547 19.9584 6.09181 18.5325 6.07843C17.1027 6.06994 15.691 6.394 14.4121 7.02428C13.1332 7.65457 12.0232 8.57331 11.1722 9.70588L8.98394 4.31373ZM24.7988 10.6863H12.4652C13.1832 9.74263 14.1143 8.97672 15.1847 8.4492C16.255 7.92169 17.4353 7.64706 18.632 7.64706C19.8287 7.64706 21.009 7.92169 22.0794 8.4492C23.1497 8.97672 24.0808 9.74263 24.7988 10.6863ZM7.79036 28.5294C8.58 25.6806 10.4731 23.2513 13.062 21.7647L13.9572 21.3725L13.2609 20.6863C12.5324 19.9845 11.9545 19.1455 11.5615 18.2192C11.1685 17.2929 10.9684 16.2982 10.9732 15.2941C10.9544 14.2092 11.1928 13.1349 11.6695 12.1569H25.694C26.1345 13.1469 26.3711 14.2133 26.3903 15.2941C26.4049 16.2996 26.2094 17.2972 25.8158 18.2249C25.4222 19.1526 24.839 19.9904 24.1026 20.6863L23.4063 21.3725L24.3015 21.8627C26.8904 23.3493 28.7835 25.7786 29.5731 28.6275L7.79036 28.5294Z" fill="currentColor"/>
</svg>