<svg width="38" height="30" viewBox="0 0 38 30" fill="none" xmlns="http://www.w3.org/2000/svg">
<g clip-path="url(#clip0_23700_76041)">
<path d="M15.8995 19.1597C15.9816 18.7077 16.15 18.2768 16.3952 17.8915L14.4858 15.9375C13.7652 16.8637 13.3192 17.982 13.2007 19.1597H15.8995Z" fill="#ECECEC"/>
<path d="M16.4592 21.7728C16.2135 21.4086 16.0361 21.0009 15.936 20.5703H13.1821C13.3199 21.7288 13.7822 22.8217 14.5132 23.7174L16.4592 21.7728Z" fill="#ECECEC"/>
<path d="M19.9824 13.6562V16.4745C20.4031 16.577 20.8016 16.7585 21.1574 17.01L23.0576 15.0654C22.1878 14.3003 21.1193 13.8107 19.9824 13.6562Z" fill="#ECECEC"/>
<path d="M17.3674 16.8942C17.7438 16.6433 18.1649 16.471 18.6066 16.3869V13.625C17.4558 13.7463 16.3631 14.2027 15.458 14.9402L17.3674 16.8942Z" fill="#ECECEC"/>
<path d="M21.0564 22.6484C20.7276 22.8673 20.3642 23.0262 19.9824 23.1182V25.9364C21.0741 25.7919 22.106 25.3435 22.9658 24.64L21.0564 22.6484Z" fill="#ECECEC"/>
<path d="M18.6066 23.1681C18.2072 23.092 17.8247 22.9424 17.4775 22.7266L15.5498 24.69C16.4366 25.3855 17.495 25.8149 18.6066 25.93V23.1681Z" fill="#ECECEC"/>
<path d="M22.0947 17.9962C22.3042 18.3523 22.4503 18.7435 22.5262 19.1517H25.2158C25.1033 18.0141 24.6837 16.931 24.0041 16.0234L22.0947 17.9962Z" fill="#ECECEC"/>
<path d="M22.4629 20.5703C22.3731 20.9611 22.2178 21.3329 22.0039 21.6694L23.9133 23.6235C24.6138 22.7478 25.0649 21.6913 25.2168 20.5703H22.4629Z" fill="#ECECEC"/>
<path d="M9.91651 25.4583C10.3064 25.4563 10.6953 25.4192 11.0787 25.3474C12.4746 27.5634 14.6678 29.1297 17.1853 29.7049C19.7249 30.2853 22.3856 29.8093 24.5819 28.3821C26.7781 26.9551 28.3298 24.694 28.8965 22.0969C29.4631 19.4998 28.9985 16.7786 27.6045 14.5318L27.6047 14.5317L27.6012 14.5268C27.5866 14.5061 27.5727 14.485 27.5594 14.4635L35.2688 8.99269L35.2689 8.99267C35.6737 8.70518 35.9556 8.27096 36.0578 7.77891C36.1601 7.28688 36.0752 6.77335 35.8202 6.34284L35.82 6.3426L34.3974 3.95677L34.3973 3.95657L32.9851 1.60122C32.9849 1.60082 32.9847 1.60043 32.9845 1.60003C32.8167 1.30306 32.5762 1.05556 32.2863 0.882063C31.996 0.708328 31.6663 0.614864 31.3297 0.611053C31.0146 0.60749 30.7039 0.686105 30.427 0.839327C30.4269 0.839419 30.4267 0.83951 30.4265 0.839602L6.93218 13.5096C6.93198 13.5097 6.93178 13.5098 6.93157 13.5099C6.83958 13.5581 6.75201 13.6145 6.66989 13.6785C5.45251 14.594 4.54533 15.8755 4.07471 17.3437L4.07454 17.3436L4.07304 17.3495C4.02275 17.5468 3.9875 17.7135 3.96054 17.8634C2.7939 18.4988 1.88997 19.5431 1.41465 20.805L1.41436 20.8049L1.41219 20.8124C1.25963 21.3383 1.21854 21.8915 1.29161 22.435C1.36465 22.9781 1.55009 23.4992 1.83565 23.9634C1.83579 23.9637 1.83594 23.9639 1.83609 23.9642L2.01787 24.2712C2.33861 24.8589 2.80773 25.3481 3.37657 25.6876C3.94593 26.0273 4.5942 26.2045 5.25361 26.2003L5.25361 26.2004L5.2572 26.2002C6.34027 26.1545 7.38943 25.8035 8.28915 25.1867C8.42834 25.2306 8.59707 25.281 8.7813 25.3239M9.91651 25.4583C9.53401 25.4638 9.15244 25.4186 8.7813 25.3239M9.91651 25.4583C9.91636 25.4583 9.91621 25.4583 9.91606 25.4583L9.91556 25.3583L9.91701 25.4583C9.91685 25.4583 9.91668 25.4583 9.91651 25.4583ZM8.7813 25.3239C8.78094 25.3238 8.78059 25.3238 8.78024 25.3237L8.80498 25.2268L8.78233 25.3242C8.78199 25.3241 8.78164 25.324 8.7813 25.3239ZM17.3832 27.4526C15.3845 26.9521 13.6606 25.6608 12.59 23.8609C12.4161 23.5627 12.2617 23.253 12.128 22.9338L12.0893 22.8415L11.997 22.8803C11.3342 23.1586 10.6287 23.315 9.91285 23.3421C9.69626 23.3458 9.48006 23.3215 9.26936 23.2698L9.26927 23.2698C8.87026 23.1724 8.62411 23.0845 8.45598 23.021C8.43543 23.0132 8.41568 23.0057 8.39671 22.9984C8.33927 22.9765 8.28901 22.9573 8.24535 22.943C8.18607 22.9236 8.12971 22.91 8.07072 22.91C7.96833 22.91 7.89872 22.9276 7.82063 22.9705C7.78504 22.9901 7.74816 23.0146 7.70751 23.0421C7.70083 23.0466 7.69399 23.0513 7.68696 23.056C7.65032 23.0809 7.60863 23.1092 7.55764 23.142L7.55742 23.1417L7.55036 23.1472C6.88158 23.668 6.08365 23.986 5.24741 24.0655C4.94555 24.0703 4.64795 23.9909 4.38662 23.8354C4.1242 23.6792 3.90828 23.4523 3.76255 23.179L3.76264 23.179L3.76035 23.1751L3.57682 22.8652C3.27313 22.3517 3.23425 21.8882 3.34002 21.48C3.44673 21.0682 3.70311 20.7038 4.00473 20.3986C4.30587 20.0939 4.64697 19.8532 4.91399 19.6884C5.04725 19.6061 5.16142 19.5432 5.24205 19.5008C5.28235 19.4797 5.31423 19.4637 5.33587 19.4531L5.36041 19.4413L5.36649 19.4384L5.36791 19.4377L5.3682 19.4376L5.36853 19.4383L5.37909 19.4318L5.38968 19.4252C5.54297 19.3302 5.64992 19.2639 5.72079 19.2C5.80228 19.1265 5.83966 19.0535 5.86132 18.952C5.87297 18.8974 5.88103 18.8279 5.89089 18.7428C5.89689 18.6911 5.90356 18.6336 5.9121 18.5702C5.93548 18.3969 5.9747 18.1601 6.05549 17.8263C6.42714 16.8321 7.0651 15.9656 7.8958 15.3262L31.2914 2.72322L32.656 5.02644L32.656 5.02654L34.0316 7.34243L24.7082 13.9487L24.6121 14.0168L24.6949 14.1006C25.5339 14.9491 26.1726 15.9826 26.5623 17.1224C26.952 18.2621 27.0823 19.478 26.9432 20.6772C26.8042 21.8764 26.3995 23.0271 25.7601 24.0417C25.1207 25.0564 24.2636 25.908 23.2541 26.5319L23.2541 26.5319C21.4931 27.6221 19.3819 27.9531 17.3832 27.4526Z" fill="#ECECEC" stroke="#ECECEC" stroke-width="0.2"/>
</g>
<defs>
<clipPath id="clip0_23700_76041">
<rect width="38" height="30" fill="white"/>
</clipPath>
</defs>
</svg>