<svg width="38" height="30" viewBox="0 0 38 30" fill="none" xmlns="http://www.w3.org/2000/svg">
<path d="M28.557 21.6714V20.0177L25.8638 16.894V9.81979L28.9161 7.70672V1H24.1581V3.93993H21.5547V1H17.1559V3.93993H14.6422V1H9.88425V7.70672L12.9365 9.81979V16.894L10.2433 20.0177V21.6714L7.99902 24.2438V28.7456H30.8013V24.2438L28.557 21.6714ZM29.4547 25.53V27.2756H9.34562V25.53H29.4547ZM18.5922 5.31802V2.37809H20.2979V5.31802H25.5945V2.37809H27.5695V6.69612H11.3206V2.37809H13.2956V5.31802H18.5922ZM24.6968 17.629L26.582 19.8339H12.2183L14.1036 17.629H24.6968ZM24.5172 10.2792V16.2509H14.2831V10.2792H24.5172ZM25.8638 8.16608L24.6968 8.90106H14.1036L12.9365 8.16608H25.8638ZM11.5899 22.2226V21.3039H27.2104V22.2226L29.0059 24.2438H9.79448L11.5899 22.2226Z" fill="currentColor"/>
</svg>