<svg width="38" height="30" viewBox="0 0 38 30" fill="none" xmlns="http://www.w3.org/2000/svg">
<path d="M23.5835 10.2869C23.7612 10.2806 23.936 10.2383 24.0977 10.1625C24.2594 10.0868 24.4049 9.97895 24.5257 9.84534C24.6465 9.71173 24.7402 9.55496 24.8015 9.38408C24.8627 9.2132 24.8903 9.03159 24.8827 8.84974C24.8981 8.66621 24.8761 8.48141 24.818 8.30704C24.76 8.13268 24.6672 7.97257 24.5455 7.83685C24.4238 7.70113 24.2758 7.59278 24.1111 7.51865C23.9463 7.44453 23.7682 7.40625 23.5883 7.40625C23.4083 7.40625 23.2302 7.44453 23.0655 7.51865C22.9007 7.59278 22.7527 7.70113 22.631 7.83685C22.5093 7.97257 22.4165 8.13268 22.3585 8.30704C22.3004 8.48141 22.2784 8.66621 22.2938 8.84974C22.2849 9.0311 22.3112 9.21249 22.3714 9.38332C22.4316 9.55415 22.5245 9.71101 22.6445 9.84477C22.7645 9.97852 22.9094 10.0865 23.0706 10.1624C23.2318 10.2383 23.4061 10.2806 23.5835 10.2869Z" fill="currentColor"/>
<mask id="path-2-outside-1_23700_76059" maskUnits="userSpaceOnUse" x="1" y="1" width="37" height="28" fill="black">
<rect fill="white" x="1" y="1" width="37" height="28"/>
<path d="M36.7068 17.0535L33.6217 16.5941L34.8538 10.4163C34.8785 10.3124 34.8784 10.204 34.8535 10.1002C34.8285 9.99638 34.7795 9.90026 34.7105 9.81999C34.6483 9.74119 34.5698 9.67751 34.4806 9.63356C34.3914 9.58961 34.2937 9.56648 34.1947 9.56584H31.6636C31.5126 9.56438 31.3657 9.61601 31.2475 9.71209C31.1293 9.80817 31.0469 9.94288 31.0141 10.0937L29.6004 15.9587L28.588 15.8023C28.2346 13.5834 26.1714 2 20.0393 2C18.3079 2.17666 16.6133 2.62504 15.0152 3.3294C14.1365 3.0948 11.271 2.40077 9.695 2.9775C8.11899 3.55422 3.81124 12.948 2.05376 16.9557C2.01829 17.0407 2 17.1321 2 17.2245C2 17.3169 2.01829 17.4084 2.05376 17.4933C2.08638 17.58 2.13639 17.6587 2.20055 17.7243C2.26471 17.79 2.3416 17.8412 2.42627 17.8746C2.50268 17.8746 3.28591 18.2167 4.33658 18.6077C3.75393 19.8491 2.18748 23.329 2.33075 25.5577C2.46447 27.5127 3.28591 27.9135 4.02138 27.9135L21.7204 28.0406C21.8853 28.0417 22.0447 27.9804 22.1681 27.8685C22.2915 27.7567 22.3702 27.6021 22.389 27.4345C22.389 27.2292 22.8093 23.2508 21.4339 20.7973C21.9974 20.7191 22.6183 20.6116 23.2391 20.4845C23.9173 21.5597 25.818 24.1599 28.0913 24.1599H28.3778C30.1735 23.9839 31.6636 22.2049 32.8193 18.8325L36.6399 18.246C36.7945 18.2551 36.9462 18.201 37.0617 18.0956C37.1773 17.9902 37.2472 17.8421 37.256 17.684C37.2649 17.5258 37.212 17.3706 37.109 17.2523C37.006 17.1341 36.8613 17.0625 36.7068 17.0535ZM32.1698 10.9637H33.3733L32.294 16.3986L30.9186 16.1835L32.1698 10.9637ZM21.9114 18.8521L21.7204 16.164L31.3293 17.5813L21.9114 18.8521ZM10.163 4.1896C11.2901 3.7986 13.9837 4.40465 14.8719 4.67835C15.0177 4.72757 15.1751 4.72757 15.3209 4.67835C16.822 4.00607 18.412 3.56468 20.0393 3.3685C24.2993 3.3685 26.5344 11.6088 27.1935 15.6263L20.9945 14.6488C20.9102 14.6373 20.8244 14.6449 20.7433 14.6709C20.6621 14.697 20.5875 14.7409 20.5247 14.7995C20.4619 14.8582 20.4124 14.9303 20.3797 15.0106C20.347 15.091 20.3319 15.1777 20.3354 15.2647L20.5456 19.4777H20.2017C19.2466 19.4777 17.4318 16.8189 16.2951 14.3458C16.2409 14.2252 16.1541 14.1231 16.0449 14.0515C15.9357 13.9799 15.8087 13.9419 15.6791 13.9419C15.5494 13.9419 15.4224 13.9799 15.3132 14.0515C15.204 14.1231 15.1172 14.2252 15.063 14.3458C13.2482 19.0671 12.0924 18.9303 10.335 18.7152C10.1726 18.7152 10.0102 18.6663 9.83827 18.6566C7.71348 18.2055 5.63483 17.5509 3.62976 16.7016C6.20868 10.8952 9.29384 4.71745 10.163 4.2287V4.1896ZM21.0996 26.6721L4.03093 26.545C3.96407 26.545 3.73483 26.4375 3.66797 25.46C3.55335 23.6711 4.91922 20.4552 5.64514 19.0182C6.95948 19.5071 8.31522 19.8703 9.695 20.1033L10.163 20.1619C12.3217 20.4258 13.9263 20.2792 15.7316 16.2519C16.639 17.9821 18.2914 20.5725 19.8674 20.8657C21.0614 22.1267 21.1569 25.0494 21.0996 26.6623V26.6721ZM28.2919 22.7621C26.9069 22.8989 25.4933 21.3251 24.6814 20.1521L25.6365 19.9078L31.3197 19.028C30.4601 21.3838 29.4094 22.6643 28.2919 22.7816V22.7621Z"/>
</mask>
<path d="M36.7068 17.0535L33.6217 16.5941L34.8538 10.4163C34.8785 10.3124 34.8784 10.204 34.8535 10.1002C34.8285 9.99638 34.7795 9.90026 34.7105 9.81999C34.6483 9.74119 34.5698 9.67751 34.4806 9.63356C34.3914 9.58961 34.2937 9.56648 34.1947 9.56584H31.6636C31.5126 9.56438 31.3657 9.61601 31.2475 9.71209C31.1293 9.80817 31.0469 9.94288 31.0141 10.0937L29.6004 15.9587L28.588 15.8023C28.2346 13.5834 26.1714 2 20.0393 2C18.3079 2.17666 16.6133 2.62504 15.0152 3.3294C14.1365 3.0948 11.271 2.40077 9.695 2.9775C8.11899 3.55422 3.81124 12.948 2.05376 16.9557C2.01829 17.0407 2 17.1321 2 17.2245C2 17.3169 2.01829 17.4084 2.05376 17.4933C2.08638 17.58 2.13639 17.6587 2.20055 17.7243C2.26471 17.79 2.3416 17.8412 2.42627 17.8746C2.50268 17.8746 3.28591 18.2167 4.33658 18.6077C3.75393 19.8491 2.18748 23.329 2.33075 25.5577C2.46447 27.5127 3.28591 27.9135 4.02138 27.9135L21.7204 28.0406C21.8853 28.0417 22.0447 27.9804 22.1681 27.8685C22.2915 27.7567 22.3702 27.6021 22.389 27.4345C22.389 27.2292 22.8093 23.2508 21.4339 20.7973C21.9974 20.7191 22.6183 20.6116 23.2391 20.4845C23.9173 21.5597 25.818 24.1599 28.0913 24.1599H28.3778C30.1735 23.9839 31.6636 22.2049 32.8193 18.8325L36.6399 18.246C36.7945 18.2551 36.9462 18.201 37.0617 18.0956C37.1773 17.9902 37.2472 17.8421 37.256 17.684C37.2649 17.5258 37.212 17.3706 37.109 17.2523C37.006 17.1341 36.8613 17.0625 36.7068 17.0535ZM32.1698 10.9637H33.3733L32.294 16.3986L30.9186 16.1835L32.1698 10.9637ZM21.9114 18.8521L21.7204 16.164L31.3293 17.5813L21.9114 18.8521ZM10.163 4.1896C11.2901 3.7986 13.9837 4.40465 14.8719 4.67835C15.0177 4.72757 15.1751 4.72757 15.3209 4.67835C16.822 4.00607 18.412 3.56468 20.0393 3.3685C24.2993 3.3685 26.5344 11.6088 27.1935 15.6263L20.9945 14.6488C20.9102 14.6373 20.8244 14.6449 20.7433 14.6709C20.6621 14.697 20.5875 14.7409 20.5247 14.7995C20.4619 14.8582 20.4124 14.9303 20.3797 15.0106C20.347 15.091 20.3319 15.1777 20.3354 15.2647L20.5456 19.4777H20.2017C19.2466 19.4777 17.4318 16.8189 16.2951 14.3458C16.2409 14.2252 16.1541 14.1231 16.0449 14.0515C15.9357 13.9799 15.8087 13.9419 15.6791 13.9419C15.5494 13.9419 15.4224 13.9799 15.3132 14.0515C15.204 14.1231 15.1172 14.2252 15.063 14.3458C13.2482 19.0671 12.0924 18.9303 10.335 18.7152C10.1726 18.7152 10.0102 18.6663 9.83827 18.6566C7.71348 18.2055 5.63483 17.5509 3.62976 16.7016C6.20868 10.8952 9.29384 4.71745 10.163 4.2287V4.1896ZM21.0996 26.6721L4.03093 26.545C3.96407 26.545 3.73483 26.4375 3.66797 25.46C3.55335 23.6711 4.91922 20.4552 5.64514 19.0182C6.95948 19.5071 8.31522 19.8703 9.695 20.1033L10.163 20.1619C12.3217 20.4258 13.9263 20.2792 15.7316 16.2519C16.639 17.9821 18.2914 20.5725 19.8674 20.8657C21.0614 22.1267 21.1569 25.0494 21.0996 26.6623V26.6721ZM28.2919 22.7621C26.9069 22.8989 25.4933 21.3251 24.6814 20.1521L25.6365 19.9078L31.3197 19.028C30.4601 21.3838 29.4094 22.6643 28.2919 22.7816V22.7621Z" fill="currentColor"/>
<path d="M33.6217 16.5941L33.4255 16.5549L33.3844 16.7609L33.5922 16.7919L33.6217 16.5941ZM34.8538 10.4163L34.6591 10.3699L34.6577 10.3771L34.8538 10.4163ZM34.7105 9.81999L34.5534 9.94404L34.5588 9.95032L34.7105 9.81999ZM34.1947 9.56584L34.196 9.36584H34.1947V9.56584ZM31.6636 9.56584L31.6617 9.76584H31.6636V9.56584ZM31.0141 10.0937L31.2086 10.1406L31.2095 10.1362L31.0141 10.0937ZM29.6004 15.9587L29.5699 16.1563L29.7518 16.1844L29.7949 16.0055L29.6004 15.9587ZM28.588 15.8023L28.3905 15.8337L28.4134 15.9777L28.5574 15.9999L28.588 15.8023ZM20.0393 2V1.8H20.0292L20.019 1.80103L20.0393 2ZM15.0152 3.3294L14.9636 3.52263L15.0316 3.54076L15.0959 3.51241L15.0152 3.3294ZM2.05376 16.9557L1.87056 16.8754L1.86919 16.8787L2.05376 16.9557ZM2 17.2245H1.8H2ZM2.05376 17.4933L2.24104 17.4228L2.23832 17.4163L2.05376 17.4933ZM2.42627 17.8746L2.35289 18.0606L2.38825 18.0746H2.42627V17.8746ZM4.33658 18.6077L4.51763 18.6927L4.60992 18.496L4.40633 18.4203L4.33658 18.6077ZM2.33075 25.5577L2.13116 25.5705L2.13122 25.5714L2.33075 25.5577ZM4.02138 27.9135L4.02281 27.7135H4.02138V27.9135ZM21.7204 28.0406L21.719 28.2406H21.7191L21.7204 28.0406ZM22.389 27.4345L22.5878 27.4568L22.589 27.4457V27.4345H22.389ZM21.4339 20.7973L21.4064 20.5992L21.1161 20.6395L21.2594 20.8951L21.4339 20.7973ZM23.2391 20.4845L23.4083 20.3778L23.3345 20.2608L23.199 20.2886L23.2391 20.4845ZM28.3778 24.1599V24.3599H28.3876L28.3973 24.3589L28.3778 24.1599ZM32.8193 18.8325L32.789 18.6348L32.6694 18.6532L32.6301 18.7677L32.8193 18.8325ZM36.6399 18.246L36.6517 18.0464L36.6305 18.0451L36.6096 18.0483L36.6399 18.246ZM37.0617 18.0956L37.1965 18.2433L37.0617 18.0956ZM32.1698 10.9637V10.7637H32.0121L31.9753 10.917L32.1698 10.9637ZM33.3733 10.9637L33.5695 11.0026L33.6169 10.7637H33.3733V10.9637ZM32.294 16.3986L32.2631 16.5961L32.4528 16.6258L32.4902 16.4375L32.294 16.3986ZM30.9186 16.1835L30.7241 16.1369L30.6735 16.3476L30.8877 16.3811L30.9186 16.1835ZM21.9114 18.8521L21.7119 18.8662L21.727 19.0788L21.9382 19.0503L21.9114 18.8521ZM21.7204 16.164L21.7496 15.9661L21.5033 15.9298L21.5209 16.1781L21.7204 16.164ZM31.3293 17.5813L31.356 17.7795L31.3585 17.3835L31.3293 17.5813ZM10.163 4.1896L10.0975 4.00064L9.96303 4.04729V4.1896H10.163ZM14.8719 4.67835L14.936 4.48879L14.9308 4.48721L14.8719 4.67835ZM15.3209 4.67835L15.3849 4.86783L15.3939 4.86478L15.4026 4.86088L15.3209 4.67835ZM20.0393 3.3685V3.1685H20.0273L20.0154 3.16994L20.0393 3.3685ZM27.1935 15.6263L27.1623 15.8239L27.4356 15.867L27.3908 15.594L27.1935 15.6263ZM20.9945 14.6488L21.0257 14.4512L21.0215 14.4507L20.9945 14.6488ZM20.3354 15.2647L20.1356 15.2728L20.1357 15.2746L20.3354 15.2647ZM20.5456 19.4777V19.6777H20.7558L20.7453 19.4677L20.5456 19.4777ZM16.2951 14.3458L16.1127 14.4278L16.1134 14.4293L16.2951 14.3458ZM15.063 14.3458L14.8803 14.2637L14.8763 14.274L15.063 14.3458ZM10.335 18.7152L10.3592 18.5167L10.3471 18.5152H10.335V18.7152ZM9.83827 18.6566L9.79674 18.8522L9.81168 18.8554L9.82692 18.8563L9.83827 18.6566ZM3.62976 16.7016L3.44698 16.6204L3.36438 16.8064L3.55175 16.8857L3.62976 16.7016ZM10.163 4.2287L10.2611 4.40303L10.363 4.34569V4.2287H10.163ZM21.0996 26.6721L21.0981 26.8721L21.2996 26.8736V26.6721H21.0996ZM4.03093 26.545L4.03242 26.345H4.03093V26.545ZM3.66797 25.46L3.46838 25.4727L3.46844 25.4736L3.66797 25.46ZM5.64514 19.0182L5.71486 18.8308L5.54726 18.7685L5.46663 18.9281L5.64514 19.0182ZM9.695 20.1033L9.66167 20.3007L9.67013 20.3017L9.695 20.1033ZM10.163 20.1619L10.1382 20.3604L10.1388 20.3604L10.163 20.1619ZM15.7316 16.2519L15.9087 16.159L15.7175 15.7944L15.5491 16.1701L15.7316 16.2519ZM19.8674 20.8657L20.0126 20.7282L19.9679 20.681L19.904 20.6691L19.8674 20.8657ZM21.0996 26.6623L20.8996 26.6552V26.6623H21.0996ZM28.2919 22.7621H28.4919V22.5413L28.2722 22.563L28.2919 22.7621ZM24.6814 20.1521L24.6318 19.9584L24.3534 20.0296L24.5169 20.266L24.6814 20.1521ZM25.6365 19.9078L25.606 19.7101L25.5964 19.7116L25.587 19.714L25.6365 19.9078ZM31.3197 19.028L31.5076 19.0966L31.6236 18.7786L31.2891 18.8304L31.3197 19.028ZM28.2919 22.7816H28.0919V23.0037L28.3128 22.9805L28.2919 22.7816ZM36.7363 16.8557L33.6511 16.3962L33.5922 16.7919L36.6773 17.2513L36.7363 16.8557ZM33.8178 16.6332L35.0499 10.4554L34.6577 10.3771L33.4255 16.5549L33.8178 16.6332ZM35.0484 10.4626C35.0804 10.3281 35.0802 10.1878 35.0479 10.0535L34.659 10.1469C34.6766 10.2201 34.6767 10.2967 34.6592 10.3699L35.0484 10.4626ZM35.0479 10.0535C35.0157 9.91906 34.9521 9.79422 34.8622 9.68965L34.5588 9.95032C34.6069 10.0063 34.6414 10.0737 34.659 10.1469L35.0479 10.0535ZM34.8675 9.69604C34.787 9.59412 34.6851 9.5114 34.569 9.45416L34.3922 9.81297C34.4544 9.84363 34.5096 9.88826 34.5536 9.94394L34.8675 9.69604ZM34.569 9.45416C34.4528 9.39691 34.3254 9.36668 34.196 9.36584L34.1934 9.76583C34.2621 9.76628 34.3299 9.78231 34.3922 9.81297L34.569 9.45416ZM34.1947 9.36584H31.6636V9.76584H34.1947V9.36584ZM31.6655 9.36585C31.4675 9.36394 31.2754 9.43171 31.1214 9.55689L31.3737 9.8673C31.4561 9.80032 31.5578 9.76483 31.6617 9.76583L31.6655 9.36585ZM31.1214 9.55689C30.9675 9.68198 30.861 9.85665 30.8186 10.0512L31.2095 10.1362C31.2328 10.0291 31.2911 9.93436 31.3737 9.8673L31.1214 9.55689ZM30.8196 10.0468L29.406 15.9118L29.7949 16.0055L31.2085 10.1405L30.8196 10.0468ZM29.631 15.761L28.6185 15.6046L28.5574 15.9999L29.5699 16.1563L29.631 15.761ZM28.7855 15.7708C28.6082 14.6577 28.0012 11.1879 26.6652 7.99191C25.9974 6.39432 25.1422 4.85239 24.0576 3.70705C22.9705 2.55917 21.6425 1.8 20.0393 1.8V2.2C21.5022 2.2 22.7317 2.88875 23.7671 3.98209C24.805 5.07797 25.6375 6.57056 26.2961 8.14618C27.6131 11.2966 28.2143 14.7279 28.3905 15.8337L28.7855 15.7708ZM20.019 1.80103C18.2667 1.97982 16.5518 2.43361 14.9346 3.14638L15.0959 3.51241C16.6749 2.81647 18.3491 2.37349 20.0596 2.19897L20.019 1.80103ZM15.0668 3.13617C14.6236 3.01784 13.6778 2.78318 12.6419 2.65081C11.615 2.51959 10.4628 2.48357 9.62627 2.78968L9.76373 3.16532C10.5032 2.89471 11.5718 2.91733 12.5912 3.04759C13.6018 3.17671 14.5281 3.40636 14.9636 3.52263L15.0668 3.13617ZM9.62627 2.78968C9.37598 2.88127 9.10725 3.12836 8.83391 3.44976C8.55344 3.77954 8.24344 4.21801 7.91467 4.73381C7.25669 5.76611 6.5122 7.12616 5.76436 8.58894C4.26811 11.5156 2.74999 14.8701 1.87059 16.8754L2.23692 17.036C3.11501 15.0337 4.62951 11.6874 6.12051 8.77102C6.86629 7.3123 7.60408 5.96529 8.25198 4.94881C8.57615 4.44023 8.87499 4.01888 9.13862 3.7089C9.40938 3.39053 9.62002 3.21791 9.76373 3.16532L9.62627 2.78968ZM1.86919 16.8787C1.8235 16.9881 1.8 17.1058 1.8 17.2245H2.2C2.2 17.1585 2.21308 17.0932 2.23832 17.0328L1.86919 16.8787ZM1.8 17.2245C1.8 17.3433 1.8235 17.4609 1.86919 17.5704L2.23832 17.4163C2.21308 17.3558 2.2 17.2906 2.2 17.2245H1.8ZM1.86659 17.5638C1.90888 17.6762 1.97383 17.7785 2.0575 17.8641L2.3436 17.5846C2.29895 17.5389 2.26389 17.4838 2.24093 17.4229L1.86659 17.5638ZM2.0575 17.8641C2.14119 17.9498 2.24176 18.0168 2.35289 18.0606L2.49964 17.6885C2.44144 17.6656 2.38823 17.6302 2.3436 17.5846L2.0575 17.8641ZM2.42627 18.0746C2.40379 18.0746 2.39009 18.0699 2.3993 18.0723C2.40332 18.0733 2.4114 18.0756 2.42474 18.08C2.45115 18.0887 2.48875 18.1023 2.53826 18.1211C2.63689 18.1586 2.77296 18.2128 2.94193 18.2803C3.27853 18.4146 3.73902 18.5987 4.26682 18.7951L4.40633 18.4203C3.88347 18.2257 3.427 18.0432 3.09023 17.9088C2.9225 17.8418 2.78277 17.7861 2.68022 17.7472C2.62913 17.7278 2.5848 17.7116 2.54965 17.7C2.53221 17.6943 2.5146 17.6889 2.49824 17.6847C2.48707 17.6819 2.4583 17.6746 2.42627 17.6746V18.0746ZM4.15553 18.5227C3.86317 19.1457 3.32229 20.3337 2.87224 21.6477C2.42444 22.9551 2.05683 24.4142 2.13116 25.5705L2.53034 25.5449C2.4614 24.4726 2.80538 23.0773 3.25066 21.7773C3.69367 20.4838 4.22735 19.3112 4.51763 18.6927L4.15553 18.5227ZM2.13122 25.5714C2.19961 26.5712 2.44577 27.2119 2.80258 27.6034C3.16524 28.0014 3.61561 28.1135 4.02138 28.1135V27.7135C3.69167 27.7135 3.36359 27.6252 3.09823 27.334C2.82703 27.0364 2.59562 26.4992 2.53029 25.5441L2.13122 25.5714ZM4.01994 28.1135L21.719 28.2406L21.7218 27.8406L4.02281 27.7135L4.01994 28.1135ZM21.7191 28.2406C21.9346 28.242 22.1423 28.1619 22.3024 28.0167L22.0338 27.7204C21.9471 27.7989 21.8359 27.8413 21.7218 27.8406L21.7191 28.2406ZM22.3024 28.0167C22.4624 27.8717 22.5636 27.6722 22.5878 27.4568L22.1903 27.4122C22.1768 27.5321 22.1206 27.6417 22.0338 27.7204L22.3024 28.0167ZM22.589 27.4345C22.589 27.435 22.589 27.4338 22.5892 27.43C22.5893 27.4264 22.5895 27.4216 22.5899 27.4154C22.5906 27.403 22.5916 27.3868 22.593 27.3664C22.5956 27.3273 22.5996 27.27 22.604 27.2042C22.6128 27.0699 22.624 26.8863 22.633 26.664C22.6511 26.2196 22.6608 25.6201 22.627 24.9489C22.5597 23.6132 22.3191 21.9674 21.6083 20.6995L21.2594 20.8951C21.924 22.0807 22.1611 23.6508 22.2275 24.9691C22.2944 26.2981 22.189 27.2947 22.189 27.4345H22.589ZM21.4614 20.9954C22.0296 20.9165 22.6546 20.8083 23.2792 20.6804L23.199 20.2886C22.5819 20.4149 21.9653 20.5216 21.4064 20.5992L21.4614 20.9954ZM23.0699 20.5912C23.4138 21.1363 24.0691 22.0711 24.9309 22.8719C25.7886 23.669 26.8794 24.3599 28.0913 24.3599V23.9599C27.03 23.9599 26.0337 23.3507 25.2032 22.5789C24.3767 21.8109 23.7426 20.9079 23.4083 20.3778L23.0699 20.5912ZM28.0913 24.3599H28.3778V23.9599H28.0913V24.3599ZM28.3973 24.3589C29.361 24.2645 30.2269 23.7398 30.9921 22.823C31.7552 21.9087 32.4265 20.5956 33.0085 18.8974L32.6301 18.7677C32.0564 20.4418 31.4048 21.7044 30.685 22.5667C29.9673 23.4265 29.1904 23.8793 28.3583 23.9608L28.3973 24.3589ZM32.8497 19.0302L36.6703 18.4437L36.6096 18.0483L32.789 18.6348L32.8497 19.0302ZM36.6282 18.4457C36.8372 18.458 37.0416 18.3847 37.1965 18.2433L36.9269 17.9478C36.8508 18.0173 36.7517 18.0522 36.6517 18.0464L36.6282 18.4457ZM37.1965 18.2433C37.3513 18.1021 37.444 17.9048 37.4557 17.6952L37.0563 17.6728C37.0504 17.7794 37.0033 17.8782 36.9269 17.9478L37.1965 18.2433ZM37.4557 17.6952C37.4675 17.4855 37.3975 17.279 37.2598 17.1209L36.9582 17.3837C37.0266 17.4621 37.0623 17.5661 37.0563 17.6728L37.4557 17.6952ZM37.2598 17.1209C37.122 16.9628 36.9275 16.8661 36.7185 16.8538L36.6951 17.2531C36.7952 17.259 36.89 17.3054 36.9582 17.3837L37.2598 17.1209ZM32.1698 11.1637H33.3733V10.7637H32.1698V11.1637ZM33.1771 10.9247L32.0978 16.3596L32.4902 16.4375L33.5695 11.0026L33.1771 10.9247ZM32.3249 16.201L30.9495 15.9859L30.8877 16.3811L32.2631 16.5961L32.3249 16.201ZM31.113 16.2301L32.3643 11.0103L31.9753 10.917L30.7241 16.1369L31.113 16.2301ZM22.1109 18.8379L21.9199 16.1498L21.5209 16.1781L21.7119 18.8662L22.1109 18.8379ZM21.6912 16.3618L31.3001 17.7792L31.3585 17.3835L21.7496 15.9661L21.6912 16.3618ZM31.3025 17.3831L21.8847 18.6539L21.9382 19.0503L31.356 17.7795L31.3025 17.3831ZM10.2286 4.37855C10.4775 4.29219 10.8296 4.25651 11.2465 4.2625C11.6596 4.26844 12.1204 4.31491 12.5778 4.38256C13.4933 4.51795 14.3788 4.73568 14.8131 4.86948L14.9308 4.48721C14.4768 4.34731 13.5714 4.12516 12.6363 3.98686C12.1684 3.91766 11.6889 3.86882 11.2522 3.86254C10.8193 3.85632 10.4121 3.8915 10.0975 4.00064L10.2286 4.37855ZM14.808 4.86783C14.9952 4.93107 15.1976 4.93107 15.3849 4.86783L15.2569 4.48886C15.1526 4.52407 15.0402 4.52407 14.9359 4.48886L14.808 4.86783ZM15.4026 4.86088C16.8855 4.1968 18.456 3.76083 20.0633 3.56706L20.0154 3.16994C18.368 3.36854 16.7585 3.81535 15.2391 4.49581L15.4026 4.86088ZM20.0393 3.5685C21.0338 3.5685 21.9239 4.04797 22.7189 4.85883C23.5152 5.6711 24.203 6.80368 24.7849 8.07413C25.9484 10.6143 26.6681 13.6596 26.9961 15.6587L27.3908 15.594C27.0597 13.5755 26.3324 10.492 25.1486 7.90755C24.5569 6.61573 23.846 5.43715 23.0045 4.57881C22.1616 3.71906 21.1749 3.1685 20.0393 3.1685V3.5685ZM27.2246 15.4288L21.0256 14.4513L20.9633 14.8464L27.1623 15.8239L27.2246 15.4288ZM21.0215 14.4507C20.9076 14.4351 20.7917 14.4453 20.6822 14.4805L20.8044 14.8614C20.8572 14.8444 20.9128 14.8395 20.9675 14.847L21.0215 14.4507ZM20.6822 14.4805C20.5727 14.5156 20.4724 14.5747 20.3882 14.6534L20.6613 14.9457C20.7027 14.907 20.7516 14.8783 20.8044 14.8614L20.6822 14.4805ZM20.3882 14.6534C20.304 14.7321 20.238 14.8283 20.1945 14.9352L20.565 15.086C20.5868 15.0322 20.6198 14.9844 20.6613 14.9457L20.3882 14.6534ZM20.1945 14.9352C20.151 15.0422 20.1309 15.1573 20.1356 15.2728L20.5353 15.2565C20.5329 15.198 20.5431 15.1398 20.565 15.086L20.1945 14.9352ZM20.1357 15.2746L20.3458 19.4876L20.7453 19.4677L20.5352 15.2547L20.1357 15.2746ZM20.5456 19.2777H20.2017V19.6777H20.5456V19.2777ZM20.2017 19.2777C20.1273 19.2777 20.0279 19.2512 19.9014 19.1827C19.7762 19.1149 19.6353 19.0119 19.4814 18.8745C19.1736 18.5994 18.831 18.2019 18.4777 17.7208C17.7718 16.7595 17.0405 15.4886 16.4769 14.2623L16.1134 14.4293C16.6864 15.676 17.4308 16.9711 18.1553 17.9575C18.5171 18.4502 18.8783 18.872 19.2149 19.1727C19.3833 19.3232 19.5498 19.4472 19.711 19.5345C19.8711 19.6211 20.0373 19.6777 20.2017 19.6777V19.2777ZM16.4775 14.2638C16.4079 14.1089 16.296 13.977 16.1545 13.8843L15.9352 14.2188C16.0121 14.2692 16.0739 14.3416 16.1127 14.4278L16.4775 14.2638ZM16.1545 13.8843C16.013 13.7915 15.848 13.7419 15.6791 13.7419V14.1419C15.7695 14.1419 15.8584 14.1684 15.9352 14.2188L16.1545 13.8843ZM15.6791 13.7419C15.5101 13.7419 15.3451 13.7915 15.2036 13.8843L15.4229 14.2188C15.4997 14.1684 15.5886 14.1419 15.6791 14.1419V13.7419ZM15.2036 13.8843C15.0621 13.977 14.9502 14.1089 14.8806 14.2638L15.2454 14.4278C15.2842 14.3416 15.346 14.2692 15.4229 14.2188L15.2036 13.8843ZM14.8763 14.274C13.9693 16.6335 13.2437 17.7279 12.5607 18.2193C11.8969 18.6968 11.2471 18.6253 10.3592 18.5167L10.3107 18.9137C11.1803 19.0202 11.9871 19.1247 12.7943 18.544C13.5821 17.9772 14.3418 16.7794 15.2497 14.4176L14.8763 14.274ZM10.335 18.5152C10.2719 18.5152 10.2053 18.5057 10.1224 18.4922C10.044 18.4794 9.94849 18.4625 9.84963 18.4569L9.82692 18.8563C9.89999 18.8604 9.97159 18.8729 10.058 18.887C10.1399 18.9003 10.2357 18.9152 10.335 18.9152V18.5152ZM9.87981 18.4609C7.76754 18.0125 5.70111 17.3618 3.70777 16.5174L3.55175 16.8857C5.56856 17.74 7.65942 18.3984 9.79674 18.8522L9.87981 18.4609ZM3.81255 16.7828C5.10093 13.882 6.51525 10.8897 7.7153 8.56271C8.31552 7.39884 8.8607 6.40423 9.30879 5.67161C9.53301 5.30502 9.73094 5.00729 9.89775 4.78784C10.071 4.55994 10.1924 4.4416 10.2611 4.40303L10.065 4.05437C9.91631 4.13798 9.75123 4.31961 9.5793 4.54578C9.40095 4.78042 9.1951 5.09087 8.96756 5.4629C8.51213 6.20753 7.96187 7.2119 7.35979 8.37937C6.15523 10.7151 4.73752 13.7148 3.44698 16.6204L3.81255 16.7828ZM10.363 4.2287V4.1896H9.96303V4.2287H10.363ZM21.101 26.4721L4.03242 26.345L4.02944 26.745L21.0981 26.8721L21.101 26.4721ZM4.03093 26.345C4.10637 26.345 4.08649 26.3967 4.02858 26.2801C3.97164 26.1654 3.90022 25.9246 3.8675 25.4463L3.46844 25.4736C3.50258 25.9728 3.5792 26.2745 3.67032 26.458C3.76045 26.6395 3.88863 26.745 4.03093 26.745V26.345ZM3.86756 25.4472C3.81303 24.5961 4.11308 23.378 4.53035 22.1726C4.94486 20.9751 5.46408 19.8202 5.82365 19.1084L5.46663 18.9281C5.10028 19.6532 4.57361 20.8248 4.15236 22.0417C3.73386 23.2507 3.4083 24.535 3.46838 25.4727L3.86756 25.4472ZM5.57543 19.2057C6.90154 19.6989 8.26947 20.0654 9.6617 20.3005L9.7283 19.9061C8.36097 19.6752 7.01742 19.3152 5.71486 18.8308L5.57543 19.2057ZM9.67013 20.3017L10.1382 20.3604L10.1879 19.9635L9.71987 19.9048L9.67013 20.3017ZM10.1388 20.3604C11.2231 20.493 12.2213 20.5314 13.1783 19.9902C14.1308 19.4516 15.0055 18.3606 15.9141 16.3337L15.5491 16.1701C14.6524 18.1705 13.8222 19.1665 12.9814 19.642C12.1451 20.115 11.2616 20.0947 10.1873 19.9634L10.1388 20.3604ZM15.5545 16.3448C16.0113 17.2159 16.6581 18.3085 17.3929 19.2229C17.7603 19.6802 18.1533 20.0975 18.5593 20.4209C18.9641 20.7432 19.3927 20.9808 19.8308 21.0623L19.904 20.6691C19.5541 20.604 19.1852 20.4079 18.8085 20.1079C18.4331 19.809 18.0608 19.4156 17.7047 18.9724C16.9924 18.0858 16.3592 17.0181 15.9087 16.159L15.5545 16.3448ZM19.7222 21.0032C20.2749 21.587 20.5902 22.5802 20.755 23.6621C20.9183 24.735 20.9281 25.8552 20.8997 26.6552L21.2994 26.6694C21.3283 25.8565 21.319 24.7089 21.1504 23.6019C20.9832 22.504 20.6539 21.4054 20.0126 20.7282L19.7222 21.0032ZM20.8996 26.6623V26.6721H21.2996V26.6623H20.8996ZM28.2722 22.563C27.6603 22.6235 27.0139 22.3061 26.3997 21.7946C25.7908 21.2875 25.2462 20.6168 24.8458 20.0383L24.5169 20.266C24.9285 20.8605 25.4966 21.5631 26.1437 22.102C26.7855 22.6364 27.5385 23.0375 28.3115 22.9611L28.2722 22.563ZM24.731 20.3459L25.6861 20.1015L25.587 19.714L24.6318 19.9584L24.731 20.3459ZM25.6671 20.1054L31.3503 19.2257L31.2891 18.8304L25.606 19.7101L25.6671 20.1054ZM31.1318 18.9595C30.7062 20.126 30.2378 21.0126 29.7471 21.6183C29.2558 22.2247 28.7574 22.5316 28.271 22.5827L28.3128 22.9805C28.9438 22.9143 29.5296 22.5223 30.0579 21.8701C30.5868 21.2173 31.0737 20.2858 31.5076 19.0966L31.1318 18.9595ZM28.4919 22.7816V22.7621H28.0919V22.7816H28.4919Z" fill="currentColor" mask="url(#path-2-outside-1_23700_76059)"/>
</svg>