<svg width="38" height="30" viewBox="0 0 38 30" fill="none" xmlns="http://www.w3.org/2000/svg">
<g clip-path="url(#clip0_23690_76888)">
<path d="M16.9819 19.9667L19.4412 21.535L21.8913 19.9667L19.4412 18.3984L16.9819 19.9667Z" fill="currentColor"/>
<path d="M33.653 10.7981C33.3229 9.65651 32.624 8.66334 31.6707 7.98106C30.7173 7.29879 29.5659 6.96781 28.4049 7.04225C26.4996 7.09115 24.6638 7.78453 23.1843 9.01408C22.8464 8.13192 22.2585 7.37329 21.4961 6.83568H22.7806V0H16.1011V6.83568H17.404C16.629 7.36648 16.0305 8.12637 15.6883 9.01408C14.2125 7.79179 12.3839 7.10198 10.486 7.05164C9.32496 6.9772 8.17358 7.30818 7.22023 7.99045C6.26688 8.67273 5.56799 9.6659 5.23788 10.8075C4.0543 15.1174 7.55 18.3192 9.93551 19.6714V26.2441C9.98138 28.7136 14.7341 30 19.45 30C24.166 30 28.9095 28.7042 28.9554 26.2441V19.6714C31.3409 18.3286 34.8366 15.108 33.653 10.7981ZM27.6342 20.554L26.1845 21.5962L27.6342 23.9812V24.1878C25.8817 23.0141 22.6521 22.4131 19.4409 22.4131C16.2296 22.4131 13.0183 23.0141 11.2384 24.1878V23.9812L12.6972 21.5962L11.2384 20.554V20.216L11.798 19.7653C14.0459 17.9624 18.4133 17.8404 18.4591 17.8404H19.3766H20.3951C20.3951 17.8404 24.7991 18 27.047 19.8028L27.6067 20.2535L27.6342 20.554ZM19.4409 15.0235C18.9554 13.1525 18.0256 11.4333 16.7342 10.0188C16.8598 9.36709 17.1942 8.77687 17.6844 8.34151C18.1746 7.90615 18.7927 7.65051 19.4409 7.61502C20.0863 7.65296 20.7009 7.90987 21.1877 8.34517C21.6746 8.78047 22.0058 9.36934 22.1292 10.0188C20.8453 11.436 19.9221 13.1547 19.4409 15.0235ZM20.3675 3.41784L21.4961 2.30986V4.52582L20.3675 3.41784ZM19.45 2.47887L18.349 1.35211H20.5235L19.45 2.47887ZM18.5325 3.41784L17.4223 4.52582V2.30986L18.5325 3.41784ZM19.45 4.35681L20.5327 5.46479H18.349L19.45 4.35681ZM6.48569 11.1643C6.75572 10.3166 7.29786 9.58718 8.02407 9.09455C8.75028 8.60193 9.6179 8.37503 10.486 8.4507C13.5597 8.4507 17.3856 10.9859 18.4316 16.4977C18.4316 16.4977 13.6331 16.6385 10.9998 18.7512C10.9815 18.7042 5.19201 15.9061 6.48569 11.1643ZM19.4409 28.6103C14.4313 28.6103 11.2384 27.1643 11.2384 26.169C11.2384 25.1737 14.4313 23.7183 19.4409 23.7183C24.4504 23.7183 27.6342 25.1643 27.6342 26.169C27.6342 27.1737 24.4413 28.6103 19.4409 28.6103ZM27.9186 18.7042C25.2854 16.5915 20.4868 16.4507 20.4868 16.4507C21.4961 10.939 25.3312 8.4507 28.4049 8.4507C29.2758 8.38228 30.1437 8.61799 30.8669 9.11935C31.5901 9.62072 32.1259 10.3581 32.3869 11.2113C33.6805 15.9061 27.9186 18.7042 27.9186 18.7042Z" fill="currentColor"/>
</g>
<defs>
<clipPath id="clip0_23690_76888">
<rect width="38" height="30" fill="white"/>
</clipPath>
</defs>
</svg>