<svg width="38" height="30" viewBox="0 0 38 30" fill="none" xmlns="http://www.w3.org/2000/svg">
<path d="M7.50559 17.2068C7.31001 17.1968 7.11437 17.2256 6.93031 17.2917C6.74625 17.3577 6.57752 17.4596 6.43416 17.5913C6.39366 17.6309 6.35587 17.6729 6.32098 17.7171C6.29141 17.7545 6.26393 17.7934 6.23865 17.8337C6.19063 17.9103 6.15054 17.9917 6.11917 18.0768C6.05181 18.2597 6.02632 18.4549 6.04455 18.6486C6.04455 18.6817 6.04513 18.7137 6.04625 18.7448C6.05691 19.0392 6.11692 19.2445 6.2026 19.3871C6.32758 19.5952 6.50718 19.6702 6.66789 19.6949C6.72307 19.7034 6.77602 19.706 6.82377 19.706C7.13386 19.706 7.38772 19.4632 7.54102 19.2068L7.55057 19.1906C7.56366 19.168 7.57596 19.1454 7.58745 19.1229C7.62081 19.0575 7.64733 18.9928 7.66626 18.9326C7.67308 18.911 7.67891 18.8899 7.68373 18.8696C7.69471 18.8233 7.7004 18.781 7.7004 18.7448V18.6486L7.31079 18.2641L7.89521 17.2068H7.50559Z" fill="currentColor"/>
<path d="M14.5185 9.8048L14.2263 9.90092C13.9047 9.94993 13.6021 10.0826 13.3497 10.2854L13.3572 10.3092C13.4125 10.4885 13.4428 10.6746 13.4471 10.8621C13.4471 10.921 13.4243 10.9879 13.3861 11.0571C13.3725 11.0818 13.3569 11.1069 13.3396 11.1319C13.234 11.285 13.0672 11.4394 12.9153 11.535C12.8227 11.5933 12.7356 11.6298 12.6712 11.6311L12.6678 11.6311C12.6166 11.6278 12.5654 11.6238 12.5143 11.6193L12.495 11.6176C12.3873 11.6078 12.2799 11.5955 12.1729 11.5806L12.112 11.5719C12.0373 11.5608 11.9629 11.5485 11.8886 11.535V12.6884L11.499 12.4001C11.0867 12.061 10.8199 11.8177 10.6984 11.535C10.6477 11.4169 10.6224 11.2921 10.6224 11.1505C10.6224 10.778 10.7979 10.4633 11.1942 10.1168C11.3093 10.0162 11.443 9.91295 11.5964 9.8048C11.7214 9.69863 11.8548 9.60395 11.9949 9.52142C12.1666 9.42034 12.3484 9.3375 12.5373 9.27418C12.7671 9.19715 13.0072 9.14899 13.2523 9.13195H14.2263L14.5185 9.8048Z" fill="currentColor"/>
<path fill-rule="evenodd" clip-rule="evenodd" d="M30.1004 10.0914C27.9579 6.72757 24.5492 4.90152 19.485 4.22876C19.3495 4.05049 19.193 3.81023 18.9963 3.50796C18.7687 3.15839 18.4871 2.7259 18.1215 2.21049C17.5755 1.28982 16.761 0.552973 15.7841 0.0961082L15.5894 0V0.288325C15.4887 1.44988 15.1925 2.58673 14.7129 3.65211H14.1285C13.3756 2.32157 12.2629 1.22357 10.9147 0.480541L10.5251 0.384433V2.88325C10.5273 3.5925 10.4621 4.30039 10.3303 4.99763C10.1405 5.61948 9.84406 6.20462 9.45382 6.72757C9.1209 7.16594 8.85813 7.65214 8.6747 8.1692C8.54495 8.74007 8.44741 9.3176 8.38253 9.89914C8.29053 10.524 8.12717 11.1366 7.89559 11.7252C7.3266 12.6224 6.7089 13.4887 6.04518 14.3201C4.68173 16.1462 4 17.4917 4 18.5489C4.03215 19.2348 4.22471 19.9041 4.56263 20.5043C4.90054 21.1045 5.37463 21.6195 5.94779 22.0088C7.00864 22.9796 8.39672 23.5275 9.84338 23.5465C10.1237 23.5579 10.4026 23.5027 10.6568 23.3857C10.911 23.2686 11.133 23.093 11.3042 22.8737C11.7147 22.3754 11.9836 21.7784 12.0833 21.1438C12.2781 19.7983 12.7651 18.9333 13.5442 18.7411C15.1718 18.4629 16.7477 17.9445 18.2189 17.2034C18.3283 17.4127 18.3945 17.6414 18.4137 17.8761C18.3931 18.6241 18.1517 19.3499 17.7192 19.9644C17.2868 20.579 16.6819 21.0557 15.9789 21.336C14.7275 22.0217 13.7106 23.0586 13.0572 24.3154C12.4517 25.9773 12.1869 27.7414 12.2781 29.5052V29.6974H33.3143V24.892C33.0221 17.2995 32.1456 13.2629 30.1004 10.0914ZM19.7771 15.7617C19.7868 15.174 19.8853 14.5909 20.0693 14.0318V13.9357L19.485 13.359L19.3876 13.6474C19.1224 14.2244 18.7959 14.7721 18.4137 15.2812C18.1292 15.5834 17.801 15.8425 17.4398 16.0501C16.8278 16.3903 16.1729 16.6488 15.492 16.8189C14.6279 17.0881 13.7502 17.3126 12.8625 17.4917C11.5964 17.8761 10.8173 19.0294 10.5251 20.9516C10.3303 21.7204 10.1355 22.1049 9.74599 22.1049C9.47507 22.0985 9.20896 22.0328 8.96687 21.9127C9.13685 21.5562 9.36743 21.2312 9.6486 20.9516C9.95737 20.6061 10.1302 20.1628 10.1355 19.7022C10.1355 19.1255 9.84338 18.8372 9.35643 18.8372C8.86948 18.8372 8.47992 19.3177 7.89559 20.471C7.74867 20.7058 7.58599 20.9305 7.40864 21.1438C7.21386 21.1438 6.92169 21.0477 6.23996 20.3749C5.74808 19.8515 5.47046 19.1666 5.46084 18.4528C5.46593 18.0816 5.56647 17.7179 5.75301 17.3956C6.18711 16.626 6.67525 15.8874 7.21386 15.1851C7.99669 14.1412 8.71229 13.0498 9.35643 11.9174C9.60823 11.369 9.77249 10.7855 9.84338 10.1875C9.83179 9.69985 9.89751 9.21344 10.0382 8.74584C10.1955 8.32511 10.4262 7.9348 10.7199 7.59255C11.2179 6.93067 11.5817 6.18009 11.7912 5.38206C11.9323 4.65371 11.9975 3.91302 11.986 3.17157C12.4084 3.63772 12.7093 4.19855 12.8625 4.80541C12.5557 5.01061 12.2913 5.27154 12.0833 5.57428L11.986 5.67038L12.0833 6.43925L14.1285 5.47817V5.76649C14.1285 6.43925 14.5181 6.53536 14.7129 6.53536C15.1024 6.53536 15.3946 6.24703 15.6868 5.67038C15.9197 5.32766 16.0543 4.92916 16.0763 4.51708C16.1647 3.83718 16.2948 3.16318 16.4659 2.49881C16.8897 2.99789 17.2495 3.54665 17.5372 4.13265C17.8142 4.71979 18.2123 5.2435 18.7058 5.67038H18.9006C23.3805 6.24703 26.5944 7.88087 28.5422 10.668C30.49 13.4551 31.4639 18.4528 31.4639 25.5648V28.0636H13.739C13.7173 26.9069 13.9498 25.7593 14.4207 24.6998C14.9371 23.7904 15.7171 23.0541 16.6607 22.5854C18.8032 21.4321 19.8745 19.8944 19.8745 17.8761L19.7771 15.7617Z" fill="currentColor"/>
</svg>