<svg width="38" height="32" viewBox="0 0 38 32" fill="none" xmlns="http://www.w3.org/2000/svg">
<path d="M29.8952 25.9863L29.8953 25.9862L29.8915 25.9814C28.8846 24.7095 27.3964 23.8609 25.7436 23.6129C25.326 23.0267 24.2944 21.5116 23.3592 19.6019C22.4186 17.6811 21.5808 15.3714 21.5556 13.2104H26.089H26.1796L26.1885 13.1202L26.252 12.4781L26.2525 12.4781V12.4682C26.2525 12.4683 26.2525 12.4681 26.2525 12.4674L26.2525 12.4647L26.2528 12.4555L26.2536 12.4261C26.254 12.402 26.2541 12.3696 26.253 12.3298C26.2506 12.2502 26.2429 12.1413 26.2218 12.0088C26.1796 11.7438 26.084 11.3852 25.8707 10.9794C25.452 10.1828 24.5852 9.21385 22.8027 8.41287C23.3973 7.55216 23.7246 6.54848 23.745 5.51703L23.745 5.51703V5.51505C23.745 4.2893 23.2315 3.1149 22.3194 2.24987C21.4074 1.38501 20.1716 0.9 18.8841 0.9C17.5965 0.9 16.3607 1.38501 15.4487 2.24987C14.5366 3.1149 14.0231 4.2893 14.0231 5.51505H14.023L14.0232 5.51878C14.0618 6.55581 14.4105 7.55968 15.0265 8.41392C13.2456 9.21469 12.3768 10.183 11.9557 10.9792C11.7411 11.3849 11.6441 11.7435 11.6009 12.0085C11.5793 12.1409 11.5712 12.2498 11.5685 12.3294C11.5672 12.3692 11.5672 12.4016 11.5676 12.4258L11.5682 12.4553L11.5685 12.4645L11.5685 12.4673C11.5685 12.468 11.5685 12.4683 11.5685 12.4682H11.5681L11.569 12.4781L11.6325 13.1202L11.6414 13.2104H11.732H16.276C16.2507 15.3713 15.4103 17.681 14.4684 19.6019C13.5326 21.5102 12.5018 23.0245 12.0882 23.6121C11.258 23.7217 10.4579 23.9839 9.73299 24.3844C8.99524 24.792 8.34984 25.3346 7.83447 25.9811L7.83431 25.981L7.83067 25.9862C6.91684 27.2952 6.53451 28.875 6.75567 30.4321L6.75559 30.4321L6.75629 30.4359L6.86209 31.0179L6.87702 31.1H6.96047H30.7336H30.817L30.832 31.0179L30.9378 30.4359L30.9378 30.436L30.9382 30.4334C31.179 28.8793 30.8073 27.296 29.8952 25.9863ZM16.6099 9.46255L16.6099 9.46257L16.6115 9.46197L17.6695 9.0807L17.8221 9.0257L17.7044 8.91406L16.8806 8.13281C16.1679 7.40163 15.7549 6.45392 15.7148 5.46084L15.7148 5.46084L15.7147 5.45889C15.6902 5.05195 15.7536 4.64447 15.9011 4.26133C16.0486 3.87817 16.2772 3.52723 16.5731 3.23013C16.8691 2.93302 17.2262 2.69604 17.6227 2.53398C18.0192 2.37191 18.4467 2.28825 18.8788 2.28825C19.3109 2.28825 19.7383 2.37191 20.1348 2.53398C20.5314 2.69604 20.8884 2.93302 21.1844 3.23013C21.4803 3.52723 21.7089 3.87817 21.8564 4.26133C22.0039 4.64447 22.0673 5.05195 22.0428 5.45889L22.0428 5.45938C21.988 6.45533 21.5645 7.40193 20.8456 8.13241L20.0112 8.91363L19.8899 9.02724L20.0471 9.08121L21.158 9.46248L21.1582 9.46255C23.1503 10.1412 23.9766 10.9743 24.3144 11.5555H13.4537C13.7915 10.9743 14.6178 10.1412 16.6099 9.46255ZM12.6504 25.1398L12.6505 25.1401L12.6586 25.1387L12.9548 25.0886L12.9931 25.0821L13.017 25.0514L13.1969 24.8207L13.1976 24.8197C13.2946 24.692 14.47 23.1343 15.6215 20.9263C16.7579 18.7473 17.8774 15.9232 17.9044 13.2104H19.8214C19.8485 15.9233 20.9706 18.7474 22.1096 20.9263C23.2638 23.1344 24.4418 24.6921 24.5387 24.8197L24.5395 24.8207L24.7194 25.0514L24.7432 25.0821L24.7815 25.0886L25.0778 25.1387L25.0777 25.139L25.0849 25.1397C25.7489 25.2033 26.3924 25.393 26.977 25.6972C27.5604 26.0009 28.0732 26.4123 28.4851 26.9069C29.0215 27.6748 29.302 28.5765 29.2921 29.4951L8.4337 29.4454C8.4239 28.53 8.70427 27.6316 9.24026 26.8673C9.65668 26.3785 10.1726 25.9737 10.7576 25.6769C11.344 25.3794 11.9877 25.1967 12.6504 25.1398Z" fill="currentColor" stroke="currentColor" stroke-width="0.2"/>
</svg>