<svg width="40" height="44" viewBox="0 0 40 44" fill="none" xmlns="http://www.w3.org/2000/svg">
  <path d="M17.8357 22.9913L2.47497 26.1381L0 23.1062L17.6596 19.1587C17.7425 18.995 17.7977 18.8105 17.8219 18.6261C18.1981 15.7089 18.1049 10.8459 17.9531 7.84178C17.9013 6.83228 17.4387 5.18923 17.4836 4.37118C17.5561 2.96484 18.8264 2.87782 19.9103 3.0832C20.5557 3.20852 22.7339 3.9465 22.8685 4.61834L22.0884 18.2327C27.1798 17.9751 32.261 17.6061 37.3352 17.4181C37.5768 17.4634 38.9196 19.1969 39.1439 19.5416C41.4601 23.0609 38.6365 23.0156 35.8405 22.7581C33.7314 22.5631 31.6396 22.0444 29.5167 21.94C27.0418 21.8182 24.5633 22.1663 22.0918 22.0618V32.9123C22.0918 33.0271 22.8443 33.5388 23.0135 33.6085C25.4746 34.6528 29.0887 32.1569 30.9907 33.4518C31.7604 33.974 32.6096 36.0626 32.6648 36.9886C32.8133 39.4705 30.8975 38.3845 29.3787 38.2069C22.0918 37.3436 15.2123 39.0633 8.04971 39.9997C6.75181 39.2512 5.81981 37.8762 5.86469 36.3341C6.48257 36.5047 6.97273 36.3585 7.53538 36.3341C9.22333 36.261 10.894 36.1218 12.5647 35.8363C13.2896 35.711 17.8322 34.7711 17.8322 34.0714V22.9913H17.8357Z" fill="currentColor"/>
</svg>
