<svg width="40" height="44" viewBox="0 0 40 44" fill="none" xmlns="http://www.w3.org/2000/svg">
  <path d="M23.2076 13.6895C26.1885 13.878 29.4202 11.7179 32.306 13.0922C32.6721 13.2662 33.8685 14.0839 33.857 14.4811C32.7413 19.0101 32.6721 23.9132 31.0635 28.306C30.5878 29.602 29.7748 31.8521 28.0422 30.9126C26.7564 30.2138 25.8743 28.6191 24.3319 27.9754C19.3734 25.9081 17.4563 32.345 21.2242 34.5805C23.3691 35.8534 29.7835 36.1114 32.2887 35.8186C33.3813 35.691 34.1914 35.3576 34.9352 34.5167C35.6357 33.7251 35.359 33.3395 35.4137 32.3885C35.4858 31.162 35.7482 26.8417 35.4166 25.9081C35.3503 25.7196 34.5316 24.5511 35.4397 24.8178C36.2527 25.0556 37.5961 28.535 37.9103 29.3904C38.608 31.2925 39.937 35.3692 39.6141 37.2944C39.4498 38.2832 38.1986 38.5296 37.3539 38.692C33.8022 39.3734 26.6873 39.6633 23.222 38.8457C15.8476 37.106 17.5716 30.3878 17.3467 24.554L17.0642 21.0398C19.2898 20.37 21.4635 19.3552 23.7611 18.9318C24.9373 18.7173 27.5435 18.3606 27.3128 20.2801C27.0591 22.3794 25.1449 24.554 25.4217 26.8243C26.8919 27.094 28.0047 26.9345 28.59 25.4296C29.279 23.6638 30.2044 18.1055 29.4433 16.4499C29.1464 15.8033 28.6217 15.7569 27.9673 15.7105C25.217 15.5104 22.0112 16.157 19.7568 17.801C18.4797 18.7289 17.6552 20.4454 15.9053 20.5469L16.0465 20.0598L24.6981 4.50967C25.1536 4.06315 26.2289 4.62855 26.6959 4.9098C27.3619 5.30994 28.2671 5.97972 28.1056 6.86987L23.2047 13.6866L23.2076 13.6895ZM23.568 21.1558C23.2912 20.918 22.1352 21.1674 21.7719 21.2804C20.1979 21.7792 19.3561 23.2753 19.8173 24.8787C20.4516 27.0824 22.7118 24.67 23.2624 23.5508C23.4901 23.0868 23.9889 21.5153 23.5709 21.1529L23.568 21.1558Z" fill="white"/>
  <path d="M7.44706 22.5803C10.0705 21.9714 12.9505 21.4697 15.3807 22.9688C15.4557 23.0877 14.9656 24.6737 14.8935 24.9984C14.5707 26.4743 14.3717 28.0371 13.9739 29.4869C13.5761 30.9366 13.4694 31.5252 11.8867 31.8326C10.5144 32.0993 9.07012 31.9486 7.70075 32.2385L4.56129 26.9324C3.35913 28.4315 2.60162 29.9769 0.5 29.4869V28.5C2.31045 26.0441 3.51481 24.3635 5.17823 21.8003C5.82399 20.8058 7.52201 18.1962 7.14147 17.0393C7.10111 16.9146 7.03192 16.8943 6.91372 16.8769C6.46976 16.8102 4.06255 17.7062 3.89246 17.5554L2.94111 14.3862C3.17174 13.9861 6.86183 13.2699 7.52201 13.1452C10.0647 12.6639 12.6449 12.3914 15.1962 11.9622C15.8766 11.913 15.9833 13.2728 15.8362 13.7744C15.4788 15.0125 12.9303 15.4504 11.8953 16.0911C9.93787 17.306 8.98652 20.8579 7.44417 22.5832L7.44706 22.5803ZM11.2698 24.3432C10.8143 23.8763 8.15913 24.32 7.79012 24.81C7.5912 25.0738 7.34039 26.6019 7.34904 26.973C7.38652 28.704 8.70976 29.6783 10.3213 28.9012C11.3707 28.3967 11.8348 27.2369 11.7743 26.1032C11.757 25.79 11.4514 24.5287 11.2698 24.3403V24.3432Z" fill="white"/>
</svg>