<svg
  width="40"
  height="44"
  viewBox="0 0 40 44"
  fill="none"
  xmlns="http://www.w3.org/2000/svg"
>
  <g clip-path="url(#clip0_24462_84400)">
    <path
      d="M21.8756 0.562837L21.5632 5.67696C24.3263 5.95556 28.4998 3.59865 29.4981 7.44464C29.5722 7.72645 29.8524 8.65833 29.5432 8.7544L21.8852 9.73111L21.5664 12.5075C21.8015 12.3698 22.043 12.293 22.3103 12.2353C24.7417 11.7165 29.7171 12.3538 32.0165 13.3786C34.9824 14.6979 32.9343 15.7867 31.9198 17.5224C30.3902 20.1451 29.7719 23.5331 27.9524 26.063L21.8917 25.9637L21.1349 29.5888L36.9694 28.4167C39.3911 28.2502 40.1414 32.0417 39.9804 33.8671C37.5619 34.2866 35.1177 33.2362 32.7475 32.8263C28.9732 32.173 24.9156 32.7911 21.1317 33.1658C20.9352 33.3035 20.8966 33.518 20.8418 33.7294C20.4006 35.417 20.5745 38.6257 20.7066 40.4254C20.7806 41.4534 20.9384 42.4941 21.122 43.5061C20.5745 44.1145 18.7647 44.1529 18.1786 43.6854C17.5313 43.1698 17.6569 40.909 17.702 40.1052C17.7535 39.1605 18.5908 33.8767 18.0305 33.4796C17.4991 33.4059 16.9066 33.4059 16.372 33.4476C12.1243 33.7614 7.49025 35.465 3.26193 35.6732C0.795137 35.7949 0.228354 34.5396 0.00292969 32.3203L17.4733 30.0019L17.5957 27.0269C16.0596 26.7355 14.063 27.8851 12.6332 27.3183C11.8377 27.0045 11.1615 25.3104 10.8137 24.5355C9.86687 22.4251 9.18416 20.1771 8.16652 18.0924C7.80262 17.343 7.35177 16.6577 6.96855 15.9244L17.4379 12.9398L17.5957 10.4805L10.7267 11.6557L9.97314 7.3838L17.3767 6.68569C18.4974 5.82747 16.1111 0.700537 18.4749 0.0920948C19.6342 -0.205722 20.7839 0.290639 21.8788 0.562837H21.8756ZM21.5632 23.0752C24.9639 24.3081 26.8317 20.2411 27.2246 17.548C27.2954 17.058 27.4661 16.1294 27.1376 15.7707C26.0266 14.5506 23.08 14.5154 21.5632 14.7492V17.2053H23.9785C24.1942 17.2053 24.8512 17.516 24.8608 17.8042C24.8802 18.3262 24.2039 19.4822 24.1298 20.0778L21.5632 19.8729V23.0752ZM17.5925 15.1751C15.6828 15.3096 13.0421 16.2446 12.2048 18.0892C11.2677 20.1547 12.4947 22.6013 13.7989 24.2313L17.2544 23.8053L17.5925 21.1538L14.604 21.458C14.3496 20.8112 13.625 19.716 14.1564 19.0691C14.7715 18.3198 17.1159 18.6912 17.4347 18.166C17.5989 17.897 17.4862 15.6778 17.5925 15.1751Z"
      fill="white"
    />
  </g>
  <defs>
    <clipPath id="clip0_24462_84400">
      <rect width="40" height="44" fill="white" />
    </clipPath>
  </defs>
</svg>
