<svg width="40" height="44" viewBox="0 0 40 44" fill="none" xmlns="http://www.w3.org/2000/svg">
  <path d="M22.7269 9.13032H27.4085C27.6168 9.13032 28.6175 9.45071 28.8827 9.55222C29.2583 9.69179 31.0988 10.6815 31.0293 11.0717L26.4109 16.1661L25.0693 17.4699C23.0552 17.2764 20.6939 17.3779 18.803 18.1456C16.2965 19.1606 18.5031 19.5032 19.4564 20.1884C20.6813 21.0703 20.9464 23.056 21.5178 24.3598C21.6473 24.3883 22.7806 23.4621 22.9858 23.3003C24.4379 22.1361 25.729 20.6865 27.3011 19.7158C27.4305 19.7158 27.5663 19.7919 27.6673 19.8712C27.7999 19.9727 29.1984 22.2186 29.2962 22.4629C29.3341 22.558 29.4004 22.6627 29.3404 22.761C28.7911 23.1956 23.917 26.0981 23.9896 26.4122C24.0243 26.5581 25.9058 28.1854 26.1931 28.4297C27.541 29.5748 28.9521 30.6787 30.5432 31.4591C32.5888 32.4646 38.1037 34.0729 39.3002 35.7732C39.4833 36.0333 39.7926 36.6423 39.297 36.728C36.6264 36.8834 33.8768 37.3529 31.1966 37.1499C30.6 37.1055 29.4414 36.9025 28.9837 36.5186C28.3271 35.9667 28.4123 34.0729 27.9356 33.1308C27.459 32.1887 25.1703 30.831 24.1885 30.2346C23.9139 30.0697 22.2281 29.0229 22.0955 29.1148L21.0412 41.962L20.9401 42.1841C20.7476 42.3268 19.0303 41.7146 18.6704 41.5972C15.9808 40.6964 13.4395 39.732 11.356 37.7367C10.6142 37.0262 9.61349 35.8906 11.5076 36.3156C13.629 36.7914 16.549 39.5449 17.8559 36.1221C18.6357 34.0856 18.3389 31.5733 18.4084 29.4321C18.0832 29.1085 14.033 31.3544 13.4711 31.7128C10.5858 33.5495 10.1975 35.8683 6.43457 36.5916C4.57205 36.95 2.21534 37.4409 0.387545 37C0.229704 36.9619 0 36.3802 0.387931 36.1221C4.63385 33.2957 8.98844 32.601 13.2407 29.7969C14.6328 28.8801 16.7132 27.0371 17.6507 25.6636C18.1116 24.9911 18.6483 24.1663 17.3224 24.5945C15.8577 25.0672 12.9124 26.9292 11.7254 27.957C10.7373 28.8135 10.0112 30.2029 8.75167 30.6787C7.32795 31.2148 5.14975 31.0562 3.65026 30.7802C3.0631 30.6724 2.11289 30.5677 2.89894 29.873C7.78253 28.0173 12.9471 25.9744 16.287 21.7459C16.3375 21.5556 15.8229 20.6516 15.6367 20.6706C15.5262 20.6801 14.6328 21.1686 14.4403 21.2733C11.678 22.7674 9.13996 25.2734 5.77796 25.2036C5.80005 24.9689 5.69272 24.566 5.88213 24.4074L13.3543 19.6492C13.0197 18.7736 11.8075 19.7951 11.1414 19.6555C10.5416 19.5286 9.30096 17.8918 8.91267 17.3462C8.14557 16.2803 7.17327 14.7038 6.78182 13.4603C6.60188 12.8925 6.39669 12.2707 6.63977 11.6871C10.0397 11.0304 14.4466 11.2779 17.5276 9.57125C18.6293 8.9622 21.0885 6.60529 18.8472 5.88204C17.3856 5.40939 14.9801 6.10726 13.8752 7.17311C12.9092 8.10572 12.9439 9.32699 11.5612 10.028C10.5574 10.5356 6.03681 11.7378 5.14344 11.3001C4.91299 11.1859 4.86248 10.8179 4.98559 10.6117L18.7809 1.20312C19.1439 1.3649 21.319 2.42757 21.3537 2.63694L19.8321 4.47678L24.299 6.65287L22.7269 9.12715V9.13032ZM19.3617 11.3508V15.0527H21.5178C22.3197 15.0527 24.0496 14.4437 24.6273 13.841C25.205 13.2383 25.7795 11.2112 24.5642 11.04C22.8942 10.8084 21.0412 11.4143 19.3617 11.3508ZM15.441 12.2105L10.6268 13.5174C10.0681 14.818 10.4058 16.3438 11.9653 16.6102C14.0678 16.9687 17.1646 15.4841 16.1481 12.9337C16.0376 12.6577 15.7535 12.1756 15.441 12.2105Z" fill="currentColor"/>
</svg>