<svg width="40" height="44" viewBox="0 0 40 44" fill="none" xmlns="http://www.w3.org/2000/svg">
  <path d="M11.8064 2.82812L16.3168 3.48443C15.9836 5.81758 15.2907 8.2262 15.0102 10.5528C14.7825 12.4397 14.9409 14.3364 14.8914 16.2298C14.7033 23.5476 14.5912 30.8916 14.3338 38.206C14.314 38.7573 14.4493 40.6705 14.2843 41.0019C13.8323 41.9109 10.5361 40.5917 10.0675 39.8534C12.9348 35.8237 10.4173 30.5765 11.8064 26.1268C7.22995 26.1957 8.07462 31.3608 7.04518 34.3536C6.47766 36.0074 5.76497 36.3487 4.25709 37.051C2.8482 37.704 2.03626 37.9902 0.475586 38C0.775842 35.7653 2.49515 35.3052 3.77536 33.7301C4.56724 32.7587 5.61649 30.2746 5.65278 29.031C5.74187 26.0087 2.58423 29.8185 1.71316 28.9489L0.475845 25.1457C2.37307 25.126 4.33298 24.7486 6.17411 24.3056C7.41802 24.007 10.7307 23.1078 11.5325 22.1956C12.1033 21.5491 11.7701 20.3579 11.8031 19.5671C10.866 19.6163 5.18425 21.6377 4.76191 21.3752C4.59034 21.2669 3.60378 19.17 3.44211 18.8025C4.08221 18.8288 5.64288 16.6006 5.64288 16.2298V7.6421C6.12461 7.77007 9.18326 7.92759 9.24265 8.23605L7.95254 16.827C8.66854 16.8861 11.7998 15.8984 11.7998 15.1305V2.82812H11.8064Z" fill="white"/>
  <path d="M28.6349 5.01416C31.2877 5.30293 35.7618 5.54905 36.0654 8.95853C31.0402 10.5501 28.9021 15.9416 24.9922 18.9507C23.6493 19.9844 22.0161 20.8146 20.2739 20.7654L23.1313 16.4994C22.6232 16.5782 22.3427 16.4338 21.9204 16.2271C21.2737 15.912 20.33 14.7635 19.7757 14.7405C18.6769 14.6946 17.5584 16.8834 16.199 16.4469C16.0208 16.3911 15.8064 16.2664 15.9153 16.0531L26.8168 1.28637C26.9092 1.18793 26.9983 1.20105 27.1204 1.20761C27.3844 1.22074 30.2516 1.9197 30.344 2.05752C30.9907 3.02885 28.4072 4.85665 28.6349 5.01416ZM27.0742 7.23574C26.4572 7.30137 25.1572 7.50154 25.6125 8.40724C25.7181 8.61726 27.3547 9.70343 27.645 9.77563C28.8955 10.0939 29.529 9.48029 29.5224 8.24645C29.5224 8.13816 29.3872 7.34403 29.3608 7.30465C29.2321 7.11433 27.4273 7.19636 27.0775 7.23246L27.0742 7.23574ZM27.2062 11.5772C25.3189 11.7347 24.3356 10.5468 23.359 9.17183C23.5008 10.5632 23.0158 11.8003 22.0392 12.7782C23.8308 14.0252 26.8828 14.3665 27.2095 11.5772H27.2062Z" fill="white"/>
  <path d="M28.5257 23.8299C25.8399 23.6264 23.3257 24.7454 20.7389 25.218C18.3533 25.6577 15.0406 26.1105 15.3739 22.619C19.5676 21.9266 23.8668 21.651 28.0902 21.0472C28.2849 20.9159 28.4565 17.1356 28.661 16.5843C29.2417 15.1503 31.9275 16.499 32.9075 16.8403L32.5907 20.3285C35.5735 19.4261 40.7702 19.5771 39.3547 24.0465C39.0875 24.8931 38.8136 24.7717 37.9393 24.6896C36.2862 24.5354 34.1217 23.5838 32.4489 23.9611C31.3699 24.204 31.8088 25.2639 31.8253 25.9563C31.9506 31.1739 31.8748 36.3915 32.0364 41.6058C32.0463 41.9274 32.3334 42.9414 32.0496 43.1383C31.459 43.3188 30.8849 43.0562 30.3537 42.8429C28.5257 42.1079 21.6595 37.901 21.0952 36.1913C21.0359 36.0108 21.0326 35.8271 21.0458 35.64C23.6887 35.9124 25.7806 38.2291 28.5224 37.8288V23.8266L28.5257 23.8299Z" fill="white"/>
  <path d="M20.574 25.7204C21.4879 26.9345 22.4712 28.467 23.8702 29.166C24.8171 29.6385 25.4771 29.3202 25.0118 30.7772C24.4608 32.5065 21.224 32.1292 19.9768 31.3941C18.6207 30.5934 18.5976 27.9748 19.1519 26.7016C19.3466 26.2585 20.0296 25.2643 20.5707 25.7171L20.574 25.7204Z" fill="white"/>
</svg>