<svg width="40" height="44" viewBox="0 0 40 44" fill="none" xmlns="http://www.w3.org/2000/svg">
  <path d="M22.7026 21.6539C23.2919 21.6539 23.8847 21.586 24.4705 21.5284C28.7646 21.0873 33.2828 19.7167 37.2391 22.2171C37.9215 22.6479 39.0347 23.4588 39.0002 24.3171C38.9899 24.6123 37.9766 26.6377 37.7836 27.167C35.7882 32.5647 35.2368 38.6138 31.9594 43.4449C28.9128 42.6476 26.0869 40.9683 24.026 38.6172C23.8192 38.3797 22.5234 36.7546 22.706 36.5816C24.8186 36.6426 26.7244 39.0175 28.8508 37.484C31.632 35.479 32.9622 29.2059 32.6969 26.0067C32.59 24.731 32.4074 23.8523 31.0047 23.6013C26.173 22.7362 16.189 26.3595 11.0092 27.3807C10.6232 27.4553 8.05919 27.9948 7.99371 27.5741C7.96613 27.401 9.00003 25.0873 9.15167 24.6462C10.3234 21.2773 10.8404 17.4674 10.6405 13.9017C10.4888 11.2215 9.62381 8.3072 9.61692 5.6304C9.61692 4.94848 10.2166 4.11388 10.9403 4.0155C14.0764 3.57106 17.4814 3.64909 20.5624 2.97056C22.3304 2.5804 24.0949 1.82384 25.8697 1.40994C26.7313 1.20977 29.1782 0.602488 29.8261 1.23013C30.0742 1.47101 29.9088 3.94425 29.8881 4.46333C27.6411 5.22328 23.3022 5.40988 23.0472 8.47344C23.0196 8.79235 22.9266 9.39624 23.3332 9.43695L28.6612 9.10787C30.7635 14.1527 25.4803 12.0968 22.6991 13.2808V15.3164L29.416 14.6345C29.8433 14.7125 30.1432 16.0832 30.1225 16.4869C30.0536 17.8236 28.6716 18.0916 27.5791 18.2545L22.6991 18.4818V21.6471L22.7026 21.6539ZM13.0529 11.5879C14.7071 11.2317 18.4326 11.6354 18.9461 9.53195C19.0529 9.0943 19.2632 7.60831 18.6394 7.63546C18.0156 7.6626 16.5406 8.01543 15.8754 8.20542C14.0937 8.71093 12.7841 9.52855 13.0529 11.5879ZM13.0529 17.5827C14.7071 17.2265 18.4326 17.6302 18.9461 15.5268C19.0529 15.0891 19.2632 13.6031 18.6394 13.6303C18.0156 13.6574 16.5406 14.0102 15.8754 14.2002C14.0937 14.7057 12.7841 15.5234 13.0529 17.5827ZM17.7226 22.7429C18.1155 22.3528 18.4877 21.5623 18.5567 21.0195C18.5946 20.7311 18.6704 19.5946 18.3843 19.5131C16.4441 20.1204 12.8082 20.1781 12.4946 22.7429C12.4532 23.089 12.3395 23.8388 12.7703 23.9168C13.239 24.0016 14.521 23.9439 15.0345 23.8863C15.9133 23.7879 17.0954 23.374 17.7261 22.7463L17.7226 22.7429Z" fill="white"/>
  <path d="M7.53799 29.7945L5.13936 37.5298C3.63676 38.1303 0.576436 35.4094 1.19333 34.0082C1.43112 33.4688 3.94348 31.769 4.5845 31.3551C4.97393 31.1007 7.28296 29.6079 7.53799 29.7979V29.7945Z" fill="white"/>
  <path d="M19.2183 27.1095C19.9696 27.0891 21.2206 29.4504 21.5376 30.095C21.7996 30.6243 22.8093 32.9042 22.6887 33.335C22.6026 33.6438 21.579 33.9287 21.255 33.9694C18.5187 34.2918 17.2435 31.5166 17.564 29.2062C17.6709 28.4259 18.3084 27.1366 19.2217 27.1129L19.2183 27.1095Z" fill="white"/>
  <path d="M25.5381 25.7469C25.8586 25.6655 27.1096 26.6629 27.4129 26.9174C28.2435 27.623 30.6145 29.9436 30.3492 31.0462C30.0666 32.2269 27.9195 31.7892 27.0441 31.5789C25.7759 31.2735 24.7282 30.8189 24.5525 29.394C24.4491 28.5662 24.4835 26.0183 25.5416 25.7469H25.5381Z" fill="white"/>
  <path d="M12.3361 28.7964C13.0874 28.6709 13.6733 30.1806 13.9559 30.771C14.5935 32.1009 16.3924 35.8769 13.4837 35.4223C11.0886 35.0457 10.3062 33.0915 10.8094 30.9236C10.9783 30.1976 11.4918 28.9389 12.3361 28.7964Z" fill="white"/>
</svg>