<svg width="40" height="44" viewBox="0 0 40 44" fill="none" xmlns="http://www.w3.org/2000/svg"> <g clip-path="url(#clip0_24462_84416)"> <path d="M27.9051 14.0901C27.865 13.9562 27.6705 13.9437 27.5502 13.9281C25.0436 13.6322 20.725 14.0745 18.6969 15.7006C17.4097 16.7348 16.1286 19.8871 14.1623 19.2299C14.0542 19.1925 13.9771 19.3015 14.011 19.071L24.5096 2.03818C24.5836 1.98522 24.6577 2.0008 24.738 2.00703C24.917 2.02572 26.9883 2.68921 27.0809 2.76709C27.5625 3.17204 26.4605 4.87283 26.195 5.3027C25.2134 6.91004 23.8891 8.37721 22.9198 9.9939C22.7963 10.2026 22.108 11.296 22.2438 11.4393C23.5773 11.271 24.8892 10.9097 26.2228 10.729C27.7724 10.5172 29.1059 10.43 30.6432 10.8038C30.9303 10.8723 32.3318 11.3396 32.4398 11.5109C32.6713 11.8816 32.2885 14.3954 32.2083 15.0059C31.7144 18.7408 30.8902 23.2327 29.8283 26.8305C29.4146 28.2385 29.2696 29.5437 27.4483 29.2913C25.8956 29.0733 24.6114 27.0112 23.1698 26.5501C17.561 24.7652 14.4864 34.4124 22.0925 35.2192C24.7195 35.4964 30.9457 35.5089 33.3257 34.5121C35.3477 33.6648 36.3848 30.6775 36.5485 28.6247C36.6534 27.3133 36.2768 25.8679 36.5948 24.6219C36.7738 23.918 37.1319 23.5224 37.8851 23.485C37.9314 24.2201 38.0765 24.9646 38.2277 25.6842C39.0365 29.5997 40.3145 33.4779 39.9317 37.5399C39.8977 37.6738 39.8051 37.6894 39.6878 37.7112C39.1908 37.8046 38.3049 37.7548 37.7338 37.8171C32.4768 38.3809 21.8178 40.5832 17.5671 36.9823C14.5358 34.4155 15.3785 29.6402 15.4588 26.139C15.5051 24.1609 15.5298 22.1486 15.1532 20.2049L15.2458 20.0055C17.6937 19.1395 21.4751 16.1149 24.0681 17.7534C26.5191 19.3046 22.997 22.6875 23.4816 24.4506C23.5094 24.5565 24.8676 25.4474 25.0775 25.4661C26.1549 25.5658 27.0624 23.6937 27.4112 22.8277C27.5038 22.5972 27.9082 21.5038 27.9082 21.3543V14.087L27.9051 14.0901ZM18.1289 24.731C19.7434 24.9272 20.8516 23.8743 20.9967 22.2795C21.151 20.5662 20.0984 18.6411 18.7648 20.7531C18.0549 21.8807 17.9746 23.4414 18.1289 24.731Z" fill="currentColor"/> <path d="M11.3906 4.79204C11.4462 4.80762 11.5573 4.94156 11.5264 5.02567L10.7331 12.8194C10.9677 13.0125 11.4986 13.539 11.7796 13.4985L14.5732 12.2743C17.1106 15.3457 12.2333 16.0839 11.156 17.9436C10.7547 18.6382 10.1466 21.4822 10.2145 22.2734C10.2701 22.8995 10.7424 23.3357 11.2085 23.669C11.7796 24.077 14.1935 25.0146 14.3355 25.214C14.8171 25.8868 14.3201 27.6032 14.0669 28.357C13.9095 28.8274 13.6842 29.7619 13.1347 29.8149C12.0821 29.9177 10.7671 27.3976 10.1126 26.6469C8.94578 25.3043 8.93961 26.2233 8.63709 27.4475C8.25123 29.0018 8.0475 31.7555 6.97326 32.933C6.0904 33.9017 1.7564 36.1352 0.487689 36.1508C0.330257 36.1508 0.178999 36.0854 0.0370018 36.0355C-0.138951 35.777 0.530905 34.8456 0.703771 34.6026C1.76566 33.1105 3.44802 32.1293 4.60561 30.7525C6.74174 28.2106 7.80363 24.2857 8.24197 21.0274C8.95504 15.7257 8.4951 10.1125 8.15245 4.79204C8.99209 4.94468 10.6621 4.58645 11.3937 4.79204H11.3906Z" fill="currentColor"/> <path d="M5.78195 14.8666C5.59365 18.2495 4.03785 21.405 4.85588 24.8346C3.55938 24.9312 1.71651 24.5263 0.691659 23.6914C-0.0399357 23.0965 -0.13563 22.7694 0.237885 21.891C0.836743 20.4892 4.27863 15.9475 5.47326 15.0255C5.57513 14.9445 5.60291 14.823 5.78195 14.8698V14.8666Z" fill="currentColor"/> </g> <defs> <clipPath id="clip0_24462_84416"> <rect width="40" height="44" fill="currentColor"/> </clipPath> </defs> </svg>