<svg width="40" height="44" viewBox="0 0 40 44" fill="none" xmlns="http://www.w3.org/2000/svg"> <g clip-path="url(#clip0_24462_84382)"> <path d="M23.8737 13.228L19.1827 13.8169L18.4966 10.775L23.5659 10.1713L23.8737 5.62466C24.0614 4.65878 26.8086 4.97976 27.049 5.47448L26.7059 9.20547L31.4439 8.81381C32.0274 8.92571 32.9656 11.2432 32.3733 11.6054L27.0988 12.3446V14.6032C28.729 14.079 30.6406 14.2616 32.2971 14.6326C33.0037 14.7916 35.6248 15.5043 35.5984 16.4201C35.1792 16.9678 34.7863 17.5096 34.4726 18.1339C33.6458 19.7859 32.3938 24.418 30.8429 25.1866C29.5264 25.8374 28.3478 24.4651 27.0138 25.1189L26.7089 28.0518L38.1814 26.8798C38.8646 26.9534 39.3894 27.8015 39.6122 28.3934C39.7031 28.6349 40.0021 29.5801 40.0021 29.7686V31.1909C38.5684 31.0525 37.1641 30.6991 35.7362 30.5166C33.7572 30.2663 31.5817 30.1102 29.588 30.2044C29.0192 30.2309 27.7175 30.3163 27.222 30.4783C27.0226 30.5431 26.3512 30.9553 26.316 31.1379L26.2955 38.382C26.272 38.4615 25.8557 38.9061 25.7824 38.9503C25.498 39.1152 24.5627 38.8031 24.2637 38.5999V30.8935L12.3044 32.36L11.3662 30.2545L23.8737 28.4405V25.6931C22.7508 25.643 21.1236 26.6913 20.1942 25.7579C19.8805 25.4428 19.1534 23.7908 18.9041 23.2754C17.963 21.3142 17.0395 19.2029 16.4413 17.1121L23.8737 15.092V13.228ZM26.7089 18.234H28.9078C28.9752 18.234 29.0163 18.3518 29.0163 18.4372C29.0104 19.0085 28.6469 19.8684 28.6586 20.4868C28.1719 20.528 27.5181 20.5074 27.049 20.5898C26.9288 20.6105 26.8613 20.6222 26.8174 20.7518C26.6796 21.17 26.8027 22.4274 26.7059 22.9456C29.5147 23.458 31.2739 19.8448 30.9044 17.5037C30.6992 16.2022 27.2161 15.89 26.8525 16.6645C26.8115 16.7499 26.6502 18.181 26.7059 18.237L26.7089 18.234ZM23.8737 16.7617C21.7803 17.065 19.9069 17.9307 19.9596 20.3484C20.0183 22.9545 21.191 24.4563 23.8737 23.3373V21.0787L21.9181 21.276L21.5253 19.6593L23.8737 19.0173V16.7587V16.7617Z" fill="white"/> <path d="M9.12956 20.5792C12.8179 21.7277 10.8653 26.1124 10.6776 28.7833C10.4782 31.622 10.9385 34.6492 10.7832 37.5262C10.7773 37.6587 10.7392 38.233 10.6219 38.2654C10.2202 38.1829 7.59618 38.0003 7.54927 37.8001L7.84539 24.5163C5.78426 25.5411 4.0603 27.1578 2.04901 28.2621C0.580124 29.0689 -0.835987 29.4753 0.591852 27.2903C1.75582 25.5117 3.57067 23.9657 4.85778 22.2489C8.32915 17.6257 10.229 11.7627 12.3928 6.4533C12.4514 6.39146 12.9147 6.18827 13.0055 6.17649C13.5157 6.09404 15.3452 7.14237 15.999 7.24838C16.0665 7.28077 16.1222 7.33083 16.1456 7.40445C16.26 7.77549 15.4508 9.10651 15.2191 9.48933C13.2841 12.6814 11.1614 14.9165 9.68956 18.5591C9.56055 18.8742 8.94192 20.3584 9.1325 20.5792H9.12956Z" fill="white"/> </g> <defs> <clipPath id="clip0_24462_84382"> <rect width="40" height="44" fill="white"/> </clipPath> </defs> </svg>