<svg width="40" height="44" viewBox="0 0 40 44" fill="none" xmlns="http://www.w3.org/2000/svg"> <path d="M37.3372 40.0115C37.2881 40.1713 37.0207 40.1682 36.8763 40.1744C34.7344 40.2788 30.9178 36.4069 29.2923 35.0456C29.0618 34.852 28.2782 34.1637 28.0631 34.1237C26.204 33.7703 23.2816 35.4635 21.6867 36.3578C21.3088 36.4715 21.0199 35.9829 20.8601 35.6909C19.7477 33.6444 20.1748 26.3891 20.3316 23.8294C20.5159 20.7841 20.7495 16.6479 21.3856 13.7194C21.6222 12.6347 21.7943 12.1952 22.7868 11.639C25.9981 9.83828 30.672 9.12536 34.3165 9.33124C34.6545 9.34968 37.3342 9.6539 37.3342 9.89974V40.0146L37.3372 40.0115ZM33.1365 35.147V13.4828C33.1365 13.3906 32.1347 12.2352 31.9626 12.0969C29.1816 9.89052 23.2785 14.0175 24.2188 17.4838C24.8734 17.9386 28.0201 16.2546 29.1386 16.9706C29.7317 17.3485 29.6825 18.4149 29.197 18.8635C28.2014 19.7823 24.354 19.9145 23.9115 20.5444L23.4076 24.4962L29.3199 23.2855C29.4029 23.2486 29.5504 23.3838 29.5504 23.4207V25.5195L23.5305 27.4893L22.9958 31.8713L29.7932 31.06C30.082 31.143 29.9284 32.1294 29.9622 32.4336C30.1588 34.2651 31.1176 35.6203 33.1365 35.1501V35.147Z" fill="currentColor"/> <path d="M11.4199 24.1836C8.96159 26.2271 7.71705 29.6872 5.10198 31.5402C4.61952 31.8813 2.21648 33.2211 1.75247 33.0859C1.07028 32.8862 2.46847 31.2237 2.67128 30.9533C5.5076 27.192 8.71576 24.0576 10.6456 19.5681C10.7531 19.3191 11.2171 18.2129 11.1004 18.0439C10.8545 17.6843 8.84789 18.2282 8.42075 18.3665C7.84919 18.554 5.26177 19.8108 4.87458 19.5558C4.67484 19.4267 3.56243 15.5671 3.22441 15.0631C5.19109 14.765 7.22538 14.7528 9.16748 14.2949C10.0771 14.0798 11.6996 13.6465 11.8317 12.5556C12.1575 9.85755 11.589 6.51112 11.8256 3.73933C11.8379 3.59183 11.8379 3.44432 11.8962 3.30604C12.2373 2.51322 15.1689 3.55495 15.8757 3.1862L14.7971 12.6048L18.8872 12.2022C19.0839 13.0073 19.2713 13.8278 18.9118 14.6206C18.1773 16.2431 14.7049 16.0803 14.4099 17.3893C13.7707 20.2195 18.7397 20.4162 18.4785 22.7854C18.2511 24.8597 14.794 22.4474 14.3884 22.8469L13.9643 40.8082C13.8783 41.0725 12.7751 40.9987 12.5047 40.9649C11.6873 40.8666 10.7992 40.4303 10.412 39.6774C9.81587 38.5127 11.4169 38.5435 11.4169 38.4144V24.1775L11.4199 24.1836Z" fill="currentColor"/> </svg>