<svg width="40" height="44" viewBox="0 0 40 44" fill="none" xmlns="http://www.w3.org/2000/svg"> <g clip-path="url(#clip0_24462_84494)"> <path d="M28.0843 10.0804C30.5038 10.1702 35.5223 9.59376 37.1722 11.751C38.4009 13.3594 37.1135 15.0023 36.8408 16.7073C36.6406 17.981 36.5578 19.6446 36.4853 20.9527C36.2782 24.6182 36.4094 28.3148 36.368 31.9976C36.3093 32.4843 35.2497 32.215 34.8458 32.1391C31.705 31.5316 29.8722 28.6289 27.1662 27.2241C27.1524 28.584 27.1766 29.9508 27.1697 31.3142C27.149 34.4965 27.1213 37.6615 27.5252 40.8438C27.6425 41.755 27.8358 42.7353 28.0671 43.6258C28.0118 43.75 27.9221 43.7742 27.7978 43.7949C26.5035 44.002 24.1703 44.4231 23.5904 42.9355C24.9987 33.4714 24.1013 23.8831 24.2876 14.3431C21.2848 14.7641 20.7291 18.226 20.6014 20.7249C20.5082 22.5577 21.1813 28.4943 20.2459 29.6885C19.704 30.3788 18.5029 29.8335 18.4166 29.0189L17.9541 13.2455C18.0507 12.5034 19.2967 12.2514 19.9146 12.0996C20.7291 11.9028 23.8942 11.5922 24.2324 10.895L24.3567 0.412712C26.0203 -0.129177 28.1292 -0.322462 29.3303 1.19966L28.0878 10.0908L28.0843 10.0804ZM32.0777 13.4491C31.5324 12.8106 28.2707 12.7485 27.7392 13.3594C27.4492 13.6907 27.7323 14.2326 27.7461 14.6226C27.8462 17.6634 26.683 21.0183 27.0799 23.9176C27.2974 25.5122 29.9205 27.6211 31.4875 27.0032C32.3262 26.6753 32.4885 24.5423 32.5713 23.7139C32.8164 21.2081 32.8923 16.9835 32.4263 14.5432C32.378 14.2913 32.2227 13.6182 32.0777 13.4526V13.4491Z" fill="white"/> <path d="M5.88095 23.8903C8.55243 23.3311 13.1671 22.0644 15.704 23.3277C16.9707 23.9593 16.8533 24.4736 16.5496 25.6402C16.0733 27.4522 15.1241 30.2514 14.3337 31.9392C13.1568 34.4519 9.90542 33.5062 7.63432 34.2138C6.30549 34.6279 3.1577 37.5238 2.68829 34.7349C2.38456 32.9263 2.95406 30.9072 3.11973 29.1228C3.43037 25.7713 3.11973 22.3612 3.24054 18.996L2.77458 11.7754C6.42284 9.12809 8.832 5.21407 11.752 1.85229C11.9867 1.74874 12.6045 2.00415 12.8634 2.12496C13.6572 2.48737 16.0526 4.3788 15.6039 5.36593L7.95531 10.0289C7.4721 10.4811 8.37295 10.6433 8.69739 10.664C10.8511 10.8055 13.0601 9.82875 15.2932 10.5122C16.8119 10.9781 16.6497 11.6132 16.3218 12.9834C15.7143 15.5238 14.2336 17.8777 13.4777 20.3801C11.4759 21.3879 8.99767 20.4663 6.95782 21.3396C5.72563 21.8677 5.68076 22.6615 5.8844 23.8903H5.88095ZM11.8624 12.3863H8.81474C8.42817 12.3863 7.31333 12.8247 6.97508 13.0766C6.57471 13.3735 5.88095 14.3779 5.88095 14.8611V17.2771C5.88095 17.7465 8.47649 17.5015 8.89758 17.4186C11.4931 16.9078 12.3836 14.8645 11.8624 12.3863ZM11.4034 25.2709H8.92864C7.63087 25.2709 5.41845 26.5031 5.41845 27.9734V30.1582C5.41845 30.1582 5.57722 30.3308 5.59102 30.3308H7.54803C7.72061 30.3308 8.55588 30.0443 8.78713 29.958C10.8235 29.1883 11.9211 27.4522 11.4034 25.2674V25.2709Z" fill="white"/> </g> <defs> <clipPath id="clip0_24462_84494"> <rect width="40" height="44" fill="white"/> </clipPath> </defs> </svg>