<svg width="40" height="44" viewBox="0 0 40 44" fill="none" xmlns="http://www.w3.org/2000/svg"> <path d="M8.25603 23.1019C7.78984 23.0586 7.34955 23.3535 6.94379 23.5674C5.26608 24.4579 3.61427 26.0308 1.89339 26.7825C-0.578566 27.8609 1.05886 25.519 1.69195 24.6516C3.25168 22.5092 5.27471 20.5548 6.74235 18.3516C9.11935 14.7838 10.0143 11.057 11.5424 7.17409C11.7381 6.6768 12.2273 5.25431 12.6935 5.05481C13.4647 4.71943 15.0187 5.28033 15.6748 5.76895C16.1467 6.12168 16.4489 6.35876 16.2417 6.98038C15.9827 7.75812 13.8359 10.0104 13.2057 10.9645C11.7179 13.2197 10.4402 15.8247 9.22007 18.236C9.94237 19.2508 10.8748 20.0979 11.6891 21.0405C10.6733 26.0047 11.1625 31.1078 11.0273 36.1443C10.9496 36.4074 10.6359 36.2079 10.423 36.2022C9.49345 36.1819 8.41718 36.5173 7.97401 35.4822L8.25891 23.0991L8.25603 23.1019Z" fill="currentColor"/> <path d="M31.7581 5.75781C32.679 9.68123 26.6617 7.89444 27.1538 11.5403C27.807 11.601 30.7884 11.0517 31.1625 11.2714C31.2085 11.2974 31.6229 12.0867 31.643 12.1908C31.7754 12.8703 31.3495 13.2548 30.7999 13.515C29.3121 14.2176 25.6401 14.313 27.4042 16.9209L31.761 16.1663C32.256 19.283 29.0387 19.549 26.7739 19.6358L27.148 21.8938C31.0128 22.128 35.1452 21.3908 38.6762 23.3568C37.8129 27.1935 37.0675 31.0793 35.9136 34.8408C35.5567 36.0031 34.6215 39.0852 33.7812 39.8311C32.8517 40.658 31.0157 39.0476 30.279 38.4259C28.8488 37.2261 27.548 35.7024 26.3912 34.2337C26.3509 34.0255 26.4862 34.0891 26.6329 34.0862C28.2473 34.0833 29.6689 36.2575 31.4445 35.1675C32.6215 34.4447 33.4877 31.2846 33.7294 29.9459C33.9596 28.6825 34.3682 25.5773 33.2977 24.6897C31.1653 22.9144 24.3941 24.8863 21.8789 25.6582C21.0041 25.9271 19.5077 26.2972 18.7768 26.7829C17.289 27.7717 16.7854 31.9611 16.6933 33.6612C16.6818 33.9012 16.9321 34.2683 16.6357 34.3638C16.1638 34.5141 15.3494 34.3377 14.9062 34.1064C14.5926 33.9416 12.9666 32.4526 12.958 32.2127C14.4544 29.9228 16.3048 27.8382 17.8473 25.557L18.0544 8.07948L31.7581 5.75781ZM23.6027 10.0947C22.3797 9.96168 20.5466 10.3636 20.2156 11.7514C20.1523 12.0145 20.0717 12.7922 20.1955 12.9917C20.325 13.1999 23.3207 12.3441 23.7955 12.4077L23.6027 10.0976V10.0947ZM23.9883 15.1052C23.3725 15.3105 20.584 15.7239 20.2473 16.0188C20.0689 16.175 19.948 17.7507 19.8645 18.0918C20.4948 17.8548 23.4243 17.768 23.7725 17.4876C24.2243 17.1233 23.9825 15.6285 23.9883 15.1052ZM23.3926 20.0492C22.2617 20.1099 19.8588 20.7518 20.1724 22.2639C20.2214 22.4952 20.5868 23.0474 20.7739 23.2036C22.2243 24.4121 23.9336 22.102 24.0746 20.7344C24.1523 19.9596 24.0631 20.0145 23.3955 20.0521L23.3926 20.0492Z" fill="currentColor"/> <path d="M20.1232 27.8452C20.5204 27.7556 20.7218 27.9175 21.0038 28.1748C21.729 28.834 22.8513 31.1991 22.8945 32.1619C22.9117 32.5348 22.2297 32.6042 21.9132 32.6331C20.1376 32.7893 19.2024 31.6183 19.2887 29.9009C19.3146 29.3949 19.5678 27.9724 20.1232 27.8481V27.8452Z" fill="currentColor"/> <path d="M27.824 31.6779C25.7319 32.3602 23.9218 31.2673 24.1894 28.9427C24.224 28.6421 24.5866 27.5058 24.8456 27.393C24.9492 27.3468 25.9794 27.4595 26.0887 27.6879C26.2182 28.2084 27.9794 31.5044 27.824 31.6779Z" fill="currentColor"/> <path d="M32.0465 30.9089C29.0681 31.279 27.209 28.4138 29.6004 26.1875L32.0465 30.9089Z" fill="currentColor"/> </svg>