<svg width="40" height="44" viewBox="0 0 40 44" fill="none" xmlns="http://www.w3.org/2000/svg"> <g clip-path="url(#clip0_24462_84223)"> <path d="M39.9998 28.7679C39.7922 29.2452 39.6917 29.2258 39.1922 29.1968C36.5132 29.0485 33.3607 27.852 30.6331 27.4908C25.1518 26.7716 15.5289 27.7617 10.0314 28.9066C6.76863 29.587 -0.084532 32.8378 -0.000205427 26.9393L11.2412 25.6461L9.746 7.06696C11.0498 6.45421 12.5969 6.82186 14.0013 6.73156C17.2932 6.52194 20.3517 4.1419 23.5075 3.28405C25.2524 2.80998 26.3162 2.72935 26.9973 4.65467C27.1173 4.99007 27.5357 6.58966 27.2438 6.78638C27.1076 6.87991 24.4448 7.20886 23.9745 7.29593C21.1593 7.8216 14.6142 9.189 13.5926 12.2366C12.8401 14.4812 14.6629 14.8908 16.4792 14.7843C19.8328 14.5908 22.9139 13.2106 26.0729 12.285C28.4989 11.5755 30.4222 10.7144 31.9401 13.3879C32.1509 13.7588 32.6504 14.8714 32.5239 15.2552C32.4299 15.539 27.2892 16.0808 26.5886 16.184L25.6156 23.924H38.5338C38.7446 23.924 39.2603 25.2333 39.3479 25.4816L39.9933 28.01V28.7614L39.9998 28.7679ZM22.9172 16.7258L14.0531 18.7704L14.8153 25.2172L22.3301 23.9369L22.9172 16.7258Z" fill="currentColor"/> <path d="M23.3519 30.809C23.8027 30.4833 26.9066 31.8087 27.5325 32.0796C28.7261 32.5924 32.6213 34.3694 33.3413 35.224C34.0062 36.0141 33.6235 40.0808 32.9197 40.7032C31.4051 42.0416 29.9391 38.536 29.2418 37.6879C28.2169 36.443 26.7217 35.4046 25.6157 34.1984C24.6946 33.1922 23.8773 32.0732 23.3486 30.809H23.3519Z" fill="currentColor"/> <path d="M14.2709 31.3516L8.70533 39.7365C6.97663 42.1972 4.11601 37.0533 5.03063 35.9762L14.2709 31.3516Z" fill="currentColor"/> </g> <defs> <clipPath id="clip0_24462_84223"> <rect width="40" height="44" fill="currentColor"/> </clipPath> </defs> </svg>